<svg width="36" height="37" viewBox="0 0 36 37" fill="none" xmlns="http://www.w3.org/2000/svg">
<g clip-path="url(#clip0_2107_39607)">
<path d="M18 36.4531C27.9411 36.4531 36 28.3943 36 18.4531C36 8.512 27.9411 0.453125 18 0.453125C8.05887 0.453125 0 8.512 0 18.4531C0 28.3943 8.05887 36.4531 18 36.4531Z" fill="#2FB459"/>
<path fill-rule="evenodd" clip-rule="evenodd" d="M22.4753 13.7029C21.8058 11.9013 19.977 11.6858 17.8379 12.0091L17.1684 9.45312L15.5355 9.83807L16.1887 12.3325C15.9764 12.3864 15.7601 12.4402 15.5438 12.4941C15.3275 12.548 15.1109 12.602 14.8987 12.6558L14.2455 10.146L12.6126 10.5309L13.2821 13.087C12.9392 13.1794 12.58 13.2717 12.2534 13.3487V13.3333L10 13.8723L10.4409 15.5352C10.4409 15.5352 11.6329 15.2273 11.6166 15.2581C12.2697 15.1041 12.58 15.412 12.7269 15.72L13.4944 18.6456L13.5267 18.6377C13.577 18.6253 13.6199 18.6148 13.674 18.6148L13.4944 18.661L14.5558 22.7568C14.5721 22.9569 14.5394 23.3111 14.0822 23.4189C14.1149 23.4343 12.8902 23.696 12.8902 23.696L13.0535 25.6362L15.1763 25.128C15.5681 25.0356 15.9601 24.9433 16.3356 24.8663L17.0051 27.4531L18.638 27.0682L17.9685 24.4967C18.2423 24.4414 18.5043 24.3806 18.7617 24.3208C18.9341 24.2808 19.1045 24.2412 19.2748 24.2042L19.9443 26.7602L21.5772 26.3753L20.9077 23.7884C23.602 22.9877 25.3492 21.8637 24.9409 19.3385C24.6144 17.306 23.406 16.6593 21.7568 16.6747C22.5896 15.9818 22.9651 15.0271 22.4753 13.7029ZM21.6426 19.785C22.1064 21.5624 19.1849 22.2155 17.8504 22.5138C17.7283 22.5411 17.6195 22.5654 17.5277 22.5874L16.6296 19.1537C16.7543 19.126 16.9077 19.0873 17.0824 19.0431C18.4633 18.6942 21.1788 18.0082 21.6426 19.785ZM16.4864 17.5425C17.5906 17.2983 20.0555 16.7531 19.6341 15.1349C19.1889 13.4559 16.8292 14.1035 15.7159 14.4091C15.604 14.4398 15.5047 14.4671 15.4212 14.4882L16.2376 17.5985C16.3091 17.5817 16.3929 17.5632 16.4864 17.5425Z" fill="white"/>
</g>
<defs>
<clipPath id="clip0_2107_39607">
<rect width="36" height="36" fill="white" transform="translate(0 0.453125)"/>
</clipPath>
</defs>
</svg>
