<svg width="36" height="37" viewBox="0 0 36 37" fill="none" xmlns="http://www.w3.org/2000/svg">
<g clip-path="url(#clip0_2107_39587)">
<path d="M18 36.7188C27.9411 36.7188 36 28.6599 36 18.7188C36 8.77762 27.9411 0.71875 18 0.71875C8.05887 0.71875 0 8.77762 0 18.7188C0 28.6599 8.05887 36.7188 18 36.7188Z" fill="#FF8724"/>
<path fill-rule="evenodd" clip-rule="evenodd" d="M23.966 16.955C24.2365 15.0637 22.8598 14.047 20.9774 13.3687L21.588 10.8066L20.0971 10.4179L19.5026 12.9124C19.1107 12.8103 18.7081 12.714 18.3081 12.6185L18.9068 10.1074L17.4168 9.71875L16.8057 12.28C16.4813 12.2027 16.1628 12.1262 15.8537 12.0458L15.8554 12.0379L13.7992 11.5008L13.4026 13.1665C13.4026 13.1665 14.5088 13.4317 14.4855 13.4481C15.0893 13.6058 15.1984 14.0239 15.1802 14.3553L14.4846 17.274C14.5262 17.2851 14.5802 17.3012 14.6396 17.326L14.5891 17.3127C14.5545 17.3038 14.5187 17.2944 14.4821 17.2852L13.5071 21.3739C13.4332 21.5657 13.2459 21.8537 12.8238 21.7444C12.8387 21.7671 11.7402 21.4615 11.7402 21.4615L11 23.2467L12.9402 23.7526C13.1568 23.8094 13.3708 23.8677 13.5826 23.9254C13.7237 23.9639 13.8639 24.0023 14.0031 24.0396L13.3861 26.631L14.8753 27.0196L15.4863 24.4557C15.8932 24.5712 16.2881 24.6779 16.6745 24.7782L16.0656 27.33L17.5565 27.7188L18.1735 25.1322C20.7158 25.6354 22.6276 25.4324 23.4322 23.0271C24.0807 21.0905 23.4 19.9734 22.0624 19.2449C23.0365 19.01 23.7703 18.3396 23.966 16.955ZM20.9477 21.5592C20.492 23.3579 17.6251 22.6143 16.3134 22.274C16.1954 22.2435 16.0899 22.2161 16 22.1942L16.8828 18.7188C16.9923 18.7456 17.1261 18.7751 17.2777 18.8085C18.6344 19.1075 21.4148 19.7201 20.9477 21.5592ZM17.2506 18.3169C18.2898 18.6372 20.5565 19.336 20.9513 17.5091C21.3545 15.6405 19.1514 15.0771 18.0755 14.802C17.9545 14.7711 17.8477 14.7439 17.7605 14.7188L17 18.2412C17.0718 18.2618 17.1561 18.2878 17.2506 18.3169Z" fill="white"/>
</g>
<defs>
<clipPath id="clip0_2107_39587">
<rect width="36" height="36" fill="white" transform="translate(0 0.71875)"/>
</clipPath>
</defs>
</svg>
