<svg width="36" height="37" viewBox="0 0 36 37" fill="none" xmlns="http://www.w3.org/2000/svg">
<g clip-path="url(#clip0_2107_39627)">
<path d="M36 18.4531C36 8.512 27.9411 0.453125 18 0.453125C8.05887 0.453125 0 8.512 0 18.4531C0 28.3943 8.05887 36.4531 18 36.4531C27.9411 36.4531 36 28.3943 36 18.4531Z" fill="#2992FA"/>
<path d="M21.3281 8.51172H12.3438L11.6016 12.6719L19.707 12.6914C23.7109 12.6914 24.8828 14.1367 24.8438 16.539C24.8242 17.7695 24.2969 19.8593 24.0625 20.5429C23.4375 22.3398 22.1875 24.3906 17.4414 24.3906H9.55078L8.80859 28.5508H17.7734C20.9375 28.5508 22.2852 28.1797 23.7109 27.5156C26.875 26.0508 28.75 22.9453 29.4922 18.8633C30.625 12.8281 29.2188 8.51172 21.3281 8.51172Z" fill="white"/>
<path d="M8.45703 16.4414C6.09375 16.4414 5.76172 17.9843 5.54688 18.9023C5.25391 20.1133 5.15625 20.6015 5.15625 20.6015H14.3555C16.7188 20.6015 17.0508 19.0586 17.2656 18.1406C17.5586 16.9297 17.6562 16.4414 17.6562 16.4414H8.45703Z" fill="white"/>
</g>
<defs>
<clipPath id="clip0_2107_39627">
<rect width="36" height="36" fill="white" transform="translate(0 0.453125)"/>
</clipPath>
</defs>
</svg>
