<svg width="32" height="33" viewBox="0 0 32 33" fill="none" xmlns="http://www.w3.org/2000/svg">
<g clip-path="url(#clip0_2107_39648)">
<mask id="mask0_2107_39648" style="mask-type:luminance" maskUnits="userSpaceOnUse" x="0" y="0" width="32" height="33">
<path d="M16.0013 0.453125H15.9987C7.16286 0.453125 0 7.61599 0 16.4518C0 25.2877 7.16286 32.4505 15.9987 32.4505H16.0013C24.8371 32.4505 32 25.2877 32 16.4518C32 7.61599 24.8371 0.453125 16.0013 0.453125Z" fill="white"/>
</mask>
<g mask="url(#mask0_2107_39648)">
<path d="M21.2018 31.5832L23.469 30.0328L25.8835 28.3909C27.4187 27.3691 27.9168 26.4541 29.1216 24.614C29.7214 23.7058 30.1314 22.9551 30.3517 22.3621C31.3108 19.7798 31.7022 17.5059 31.526 15.5403C31.3701 13.7781 30.7109 11.5703 29.5486 8.9168C29.4367 8.65925 29.2402 8.3695 28.9589 8.04756C28.3489 7.35624 27.9626 6.50733 27.3577 5.92784C25.7649 4.3893 23.9756 3.14559 21.9897 2.19672L19.1533 1.2868C17.1606 0.731033 15.268 0.62259 13.4753 0.961475C12.3671 1.16819 11.5775 1.25461 11.1064 1.22072C11.9454 0.950074 12.8058 0.749444 13.6786 0.620895C15.7759 0.315523 17.9129 0.427814 19.9666 0.951308C23.2559 1.79422 26.1919 3.66094 28.3502 6.28164C30.5086 8.90235 31.7774 12.1413 31.9733 15.5302C32.1749 19.014 31.2314 22.4683 29.2868 25.3666C27.3421 28.2648 24.5028 30.4479 21.2018 31.5832Z" fill="#9E793E"/>
<path d="M19.1531 1.28668L14.812 1.13418C14.6086 1.1274 14.5222 1.22398 14.5527 1.42392C14.573 1.56625 14.6696 1.68486 14.8425 1.77975C14.4053 1.78314 14.1359 1.88142 14.0342 2.07458C13.9427 2.2508 13.9885 2.38297 14.1715 2.47108C14.3036 2.53546 14.4731 2.57782 14.6798 2.59816C14.6086 2.79471 14.6086 2.94213 14.6798 3.0404C14.7306 3.11496 14.8441 3.15054 15.0204 3.14715C18.111 3.12004 20.9644 3.91303 23.5806 5.52612C24.8887 6.63767 25.724 7.40016 26.0867 7.8136C30.5549 12.9629 30.3159 20.5929 25.6546 25.5542C23.1163 28.1873 19.985 29.5446 16.2607 29.6259C16.0607 29.6293 15.9726 29.7309 15.9964 29.9309L16.0421 30.3528C16.0523 30.4307 16.0963 30.4646 16.1743 30.4545L16.3166 30.4392C16.4115 30.429 16.4742 30.4697 16.5047 30.5612C16.5657 30.7476 16.5555 30.895 16.4742 31.0035C16.3725 31.139 16.242 31.178 16.0828 31.1204C15.5711 30.9374 15.2322 31.0153 15.0661 31.3542C15.0383 31.4112 15.0243 31.4739 15.025 31.5373C15.0258 31.6007 15.0414 31.663 15.0705 31.7193C15.0997 31.7756 15.1415 31.8243 15.1929 31.8615C15.2442 31.8987 15.3035 31.9235 15.366 31.9337C16.5759 32.1302 17.6281 32.1116 18.5227 31.8778C20.2104 31.4406 21.8591 30.8255 23.4688 30.0326L21.2016 31.5829C19.5556 32.1519 17.8264 32.4472 16.0828 32.4573C12.459 32.4738 8.93791 31.2624 6.09415 29.021L3.44577 25.6203L4.08118 25.727C4.14895 25.7372 4.21165 25.7236 4.26926 25.6864C4.33365 25.6457 4.37601 25.5965 4.39634 25.5389C4.43701 25.4305 4.41667 25.3339 4.33534 25.2492L4.04051 24.9544C3.86768 24.7815 3.88801 24.6341 4.10151 24.5121C4.20995 24.4511 4.33026 24.4359 4.46242 24.4664C4.56748 24.4935 4.6827 24.5918 4.80808 24.7612C4.94703 24.951 5.1063 25.1204 5.28591 25.2695C5.40113 25.361 5.52313 25.3712 5.65191 25.3C5.80441 25.2119 5.88235 25.1611 5.88574 25.1475C5.90946 25.0628 5.86371 24.9442 5.74849 24.7917C4.15912 22.694 3.25599 20.6675 3.0391 18.7121C2.73072 15.9468 3.06283 13.2561 4.03543 10.6399C4.06435 10.56 4.07321 10.474 4.06115 10.39C4.0491 10.306 4.01654 10.2268 3.96659 10.16C3.91663 10.0932 3.85094 10.0411 3.77578 10.0085C3.70062 9.97594 3.6185 9.96405 3.53727 9.97399C3.31021 10.0011 3.23396 10.2078 3.30852 10.5941C3.33902 10.7466 3.2848 10.8584 3.14585 10.9296C3.09841 10.9533 3.04588 10.9686 2.98827 10.9754C2.83577 10.9923 2.72564 10.9313 2.65786 10.7924L2.36303 10.2129C2.26814 10.0231 2.16309 10.0164 2.04787 10.1926L1.25488 11.4074C2.33931 8.74045 3.97443 6.21745 6.16023 3.83848C7.6432 2.68171 9.31747 1.79554 11.1062 1.22059C11.5773 1.25448 12.3669 1.16807 13.4751 0.961347C15.2678 0.622462 17.1604 0.730905 19.1531 1.28668ZM13.0684 2.62866C13.1294 2.66932 13.1938 2.69135 13.2616 2.69474C13.4174 2.7083 13.5242 2.64221 13.5818 2.49649C13.6123 2.41855 13.6157 2.33552 13.592 2.24741C13.5344 2.04408 13.4073 1.97461 13.2107 2.039L10.6284 2.87774C10.5369 2.90824 10.4861 2.96924 10.4759 3.06074L10.4607 3.23357C10.4437 3.36912 10.503 3.4352 10.6386 3.43181C10.9504 3.42843 11.1723 3.33184 11.3045 3.14207C11.3926 3.0099 11.5146 2.95399 11.6705 2.97432C12.0128 3.01499 12.3466 2.90315 12.6719 2.63882C12.8007 2.53377 12.9328 2.53038 13.0684 2.62866ZM12.2602 4.24005C11.4604 4.40272 10.7301 4.70433 10.0693 5.14488L6.31273 7.87968C4.85892 9.71305 3.93037 11.7531 3.5271 13.9999C2.70361 18.6155 3.98968 22.5737 7.3853 25.8744C8.80184 27.2469 10.7386 28.2551 13.1955 28.899C15.3101 29.4514 17.4027 29.3768 19.4733 28.6753C20.7272 28.3568 21.9743 27.7705 23.2146 26.9165C26.0951 24.768 27.8472 22.0772 28.4707 18.8443C29.6551 12.724 26.6051 7.03585 20.856 4.73313C20.3544 4.5298 20.1697 4.69077 20.3019 5.21604C20.6272 6.50211 20.8712 7.4476 21.3795 8.64725C22.9181 12.2631 24.3278 15.9519 25.6088 19.7135C24.8429 19.8389 24.0703 19.9897 23.2909 20.1659C22.7791 20.2845 22.059 20.5743 21.1305 21.0352C20.2629 21.4655 19.3479 21.7485 18.3855 21.8841L18.6498 21.4113C18.7145 21.296 18.7499 21.1666 18.7529 21.0345C18.7559 20.9024 18.7265 20.7717 18.6671 20.6541C18.6078 20.5364 18.5204 20.4354 18.4128 20.36C18.3051 20.2846 18.1805 20.2371 18.05 20.2218L16.2353 19.9982C18.6176 19.5983 21.0407 19.5068 23.5044 19.7237C23.6806 19.7406 23.7839 19.661 23.8144 19.4848C23.872 19.1357 23.8043 18.6579 23.6111 18.0513C23.5535 17.8751 23.4315 17.7971 23.2451 17.8174L15.3864 18.6969C15.2474 18.7104 15.1237 18.6714 15.0153 18.5799C14.9611 18.5325 14.939 18.4935 14.9492 18.463C14.9962 18.3256 15.0929 18.2014 15.2285 18.1045C15.364 18.0075 15.5331 17.9416 15.7168 17.914L23.1434 16.7805C23.689 16.6957 23.8382 16.4653 23.5908 16.0891C23.5467 16.018 23.4044 15.9129 23.1638 15.774C22.9503 15.6486 22.7656 15.5893 22.6097 15.5961C21.2575 15.6367 19.7071 15.6469 18.4821 16.0078C17.4485 16.3128 16.3979 16.5992 15.3304 16.8669C15.306 16.8728 15.2806 16.8736 15.2559 16.8693C15.2311 16.865 15.2075 16.8557 15.1865 16.8418C15.1655 16.828 15.1476 16.81 15.1339 16.789C15.1202 16.7679 15.111 16.7442 15.1068 16.7195L15.0865 16.5873C15.0526 16.3738 15.1407 16.2365 15.3508 16.1756L21.9235 14.371C22.1539 14.31 22.2386 14.1643 22.1776 13.9338L22.0709 13.5526C22.037 13.4272 21.954 13.373 21.8218 13.3899C19.9308 13.6576 18.7091 13.9135 18.1567 14.1575C16.9164 14.6997 15.9066 15.1131 15.1271 15.3978C15.1068 15.408 15.0898 15.4029 15.0763 15.3826L14.9848 15.2555C14.9068 15.147 14.9289 15.0623 15.0509 15.0013L19.9461 12.5207C20.2849 12.3478 20.29 12.1665 19.9613 11.9768L19.7326 11.8446C19.4682 11.6921 19.1988 11.6853 18.9243 11.8243L15.2644 13.6746C15.2545 13.6795 15.2436 13.6822 15.2326 13.6825C15.2216 13.6828 15.2106 13.6807 15.2004 13.6764C15.1903 13.672 15.1812 13.6655 15.1738 13.6573C15.1664 13.6491 15.1609 13.6394 15.1576 13.6288L15.0661 13.2984C15.0492 13.234 15.0695 13.1849 15.1271 13.151C16.6724 12.2496 18.2093 11.3702 19.7376 10.5128C19.8529 10.445 19.924 10.3688 19.9511 10.2841C19.9783 10.1994 19.9867 10.1163 19.9766 10.035C19.9495 9.84521 19.841 9.7571 19.6512 9.77066C18.2618 9.87571 16.9571 10.3163 15.7371 11.0923C16.9317 8.27109 16.1438 3.86389 12.2602 4.24005ZM13.348 30.5307C13.4395 30.6527 13.5598 30.7273 13.7089 30.7544C13.7413 30.7605 13.7749 30.7577 13.8063 30.746C13.8376 30.7344 13.8654 30.7145 13.8868 30.6883C14.0562 30.4917 13.9241 30.3613 13.4903 30.2969C13.4612 30.292 13.4314 30.2959 13.4046 30.3082C13.3778 30.3205 13.3553 30.3404 13.34 30.3656C13.3247 30.3908 13.3172 30.42 13.3187 30.4494C13.3201 30.4788 13.3303 30.5071 13.348 30.5307Z" fill="#D7AF73"/>
<path d="M19.1532 1.28686L21.9896 2.19677C21.9219 2.63732 21.8049 2.9796 21.6389 3.2236C22.1608 3.79292 22.8572 4.23517 23.7281 4.55033L23.5807 5.52632C20.9645 3.91323 18.1111 3.12024 15.0205 3.14735C14.8442 3.15073 14.7307 3.11515 14.6799 3.0406C14.6087 2.94232 14.6087 2.79491 14.6799 2.59835C14.9544 2.50008 15.0086 2.22727 14.8425 1.77995C14.6697 1.68506 14.5731 1.56645 14.5528 1.42411C14.5223 1.22417 14.6087 1.12759 14.8121 1.13437L19.1532 1.28686ZM16.3319 1.91719C15.888 1.65625 15.6271 1.68167 15.5491 1.99344C15.53 2.06231 15.5341 2.13569 15.5607 2.20259C15.5872 2.26949 15.6349 2.3263 15.6965 2.36452C15.9812 2.53735 16.2167 2.50008 16.4031 2.25269C16.4222 2.22702 16.4355 2.19758 16.4422 2.16625C16.449 2.13492 16.449 2.1024 16.4423 2.0708C16.4356 2.03919 16.4223 2.00919 16.4033 1.98273C16.3843 1.95628 16.36 1.93395 16.3319 1.91719ZM16.9165 2.01886C16.8623 2.21202 16.9945 2.38486 17.313 2.53735C17.3334 2.54805 17.3559 2.55429 17.3789 2.5557C17.402 2.55711 17.4253 2.55366 17.4472 2.54555C17.4691 2.53744 17.4893 2.52486 17.5065 2.50858C17.5236 2.4923 17.5374 2.47268 17.5469 2.45094C17.6892 2.12561 17.6587 1.90703 17.4554 1.7952C17.4064 1.76772 17.3518 1.75173 17.2957 1.74843C17.2396 1.74513 17.1835 1.75461 17.1316 1.77614C17.0797 1.79768 17.0334 1.83072 16.9961 1.87276C16.9589 1.91481 16.9317 1.96476 16.9165 2.01886ZM18.8634 2.36452C18.8844 2.33055 18.8942 2.29106 18.8914 2.25176C18.8887 2.21247 18.8735 2.1754 18.8482 2.14594C18.7533 2.03411 18.6211 1.96972 18.4517 1.95278C18.4129 1.94923 18.3738 1.95327 18.3367 1.96467C18.2995 1.97606 18.2651 1.99458 18.2353 2.01916C18.2055 2.04373 18.181 2.07388 18.1632 2.10786C18.1454 2.14183 18.1346 2.17896 18.1314 2.21711L18.1009 2.50177C18.0978 2.53593 18.1022 2.57036 18.1139 2.60261C18.1256 2.63487 18.1442 2.66416 18.1684 2.68842C18.1927 2.71267 18.222 2.7313 18.2542 2.74296C18.2865 2.75463 18.3209 2.75906 18.3551 2.75593C18.5449 2.74238 18.7143 2.61191 18.8634 2.36452ZM19.3768 2.36961C19.3406 2.38042 19.3084 2.4015 19.2841 2.43037C19.2597 2.45924 19.2442 2.4947 19.2394 2.53259C19.2346 2.57048 19.2407 2.60923 19.2569 2.64429C19.2732 2.67935 19.2989 2.70926 19.3311 2.73052C19.5581 2.87285 19.731 2.92538 19.8496 2.8881C20.2833 2.74916 20.2935 2.57463 19.8801 2.36452C19.7581 2.30013 19.5903 2.30183 19.3768 2.36961ZM21.1712 3.02026C21.0458 2.71188 20.895 2.62207 20.7188 2.75085C20.6898 2.77195 20.6652 2.79864 20.6467 2.82936C20.6281 2.86007 20.6158 2.89419 20.6106 2.92971C20.6054 2.96522 20.6074 3.00142 20.6163 3.03618C20.6253 3.07093 20.6411 3.10354 20.6629 3.1321C20.7883 3.29476 20.9289 3.33543 21.0848 3.25409C21.1261 3.23325 21.158 3.19755 21.174 3.15417C21.19 3.11079 21.189 3.06295 21.1712 3.02026Z" fill="#F4DEBA"/>
<path d="M14.8422 1.77979C15.0083 2.22712 14.9541 2.49992 14.6796 2.5982C14.4729 2.57786 14.3034 2.5355 14.1712 2.47112C13.9882 2.38301 13.9425 2.25084 14.034 2.07462C14.1357 1.88146 14.4051 1.78318 14.8422 1.77979Z" fill="#C29A5A"/>
<path d="M16.3318 1.91711C16.3599 1.93387 16.3842 1.95619 16.4032 1.98265C16.4222 2.00911 16.4355 2.0391 16.4422 2.07071C16.4489 2.10232 16.4488 2.13484 16.4421 2.16616C16.4353 2.19749 16.422 2.22694 16.403 2.25261C16.2166 2.49999 15.9811 2.53727 15.6964 2.36444C15.6348 2.32622 15.5871 2.2694 15.5605 2.2025C15.534 2.1356 15.5299 2.06222 15.549 1.99336C15.6269 1.68158 15.8879 1.65617 16.3318 1.91711Z" fill="#C29A5A"/>
<path d="M16.9161 2.01886C16.9313 1.96477 16.9585 1.91481 16.9957 1.87277C17.033 1.83072 17.0793 1.79769 17.1312 1.77615C17.1831 1.75461 17.2392 1.74514 17.2953 1.74844C17.3513 1.75174 17.4059 1.76773 17.4549 1.7952C17.6583 1.90703 17.6888 2.12561 17.5464 2.45094C17.5369 2.47269 17.5232 2.49231 17.506 2.50859C17.4889 2.52487 17.4687 2.53745 17.4468 2.54556C17.4249 2.55366 17.4016 2.55712 17.3785 2.55571C17.3555 2.5543 17.333 2.54805 17.3126 2.53736C16.9941 2.38486 16.8619 2.21203 16.9161 2.01886Z" fill="#C29A5A"/>
<path d="M13.0685 2.62876C12.933 2.53049 12.8008 2.53387 12.672 2.63893C12.3467 2.90326 12.0129 3.01509 11.6706 2.97443C11.5147 2.95409 11.3927 3.01001 11.3046 3.14217C11.1725 3.33195 10.9505 3.42853 10.6387 3.43192C10.5032 3.43531 10.4438 3.36923 10.4608 3.23367L10.476 3.06084C10.4862 2.96934 10.537 2.90834 10.6285 2.87784L13.2108 2.0391C13.4074 1.97471 13.5345 2.04419 13.5921 2.24752C13.6158 2.33563 13.6124 2.41865 13.5819 2.4966C13.5243 2.64232 13.4176 2.7084 13.2617 2.69484C13.1939 2.69146 13.1295 2.66943 13.0685 2.62876Z" fill="#C29A5A"/>
<path d="M18.8631 2.3644C18.714 2.61179 18.5445 2.74226 18.3548 2.75581C18.3206 2.75894 18.2862 2.75451 18.2539 2.74284C18.2217 2.73118 18.1924 2.71255 18.1681 2.6883C18.1439 2.66404 18.1252 2.63475 18.1136 2.60249C18.1019 2.57024 18.0975 2.53581 18.1006 2.50165L18.1311 2.21699C18.1342 2.17884 18.145 2.14171 18.1629 2.10774C18.1807 2.07376 18.2052 2.04361 18.235 2.01904C18.2648 1.99446 18.2992 1.97594 18.3363 1.96455C18.3735 1.95315 18.4126 1.94911 18.4514 1.95266C18.6208 1.9696 18.753 2.03399 18.8478 2.14582C18.8732 2.17528 18.8884 2.21235 18.8911 2.25164C18.8938 2.29094 18.884 2.33043 18.8631 2.3644Z" fill="#C29A5A"/>
<path d="M19.3773 2.36952C19.5908 2.30175 19.7586 2.30005 19.8806 2.36444C20.294 2.57455 20.2838 2.74908 19.8501 2.88802C19.7314 2.9253 19.5586 2.87277 19.3316 2.73044C19.2994 2.70918 19.2736 2.67927 19.2574 2.64421C19.2412 2.60915 19.2351 2.5704 19.2399 2.53251C19.2447 2.49462 19.2602 2.45916 19.2845 2.43029C19.3089 2.40142 19.3411 2.38034 19.3773 2.36952Z" fill="#C29A5A"/>
<path d="M25.8832 28.3906C26.0832 27.9772 26.1323 27.5993 26.0306 27.2571C25.9493 26.9893 25.8629 26.9893 25.7714 27.2571C25.6629 27.579 25.4528 27.7468 25.1411 27.7603C24.975 27.7705 24.8496 27.8467 24.7649 27.9891L24.6073 28.2636C24.509 28.4364 24.3633 28.4991 24.1701 28.4516C24.082 28.4313 24.0024 28.3923 23.9312 28.3347C23.9012 28.3093 23.8783 28.2766 23.8646 28.2398C23.8508 28.203 23.8469 28.1632 23.853 28.1244C23.8591 28.0856 23.8752 28.049 23.8996 28.0181C23.9239 27.9873 23.9559 27.9633 23.9922 27.9484C24.7412 27.6502 25.3427 27.1452 25.7968 26.4336C25.7799 26.6132 25.873 26.7284 26.0764 26.7792C26.1787 26.8043 26.2863 26.7955 26.3827 26.7542C26.479 26.7129 26.5589 26.6414 26.6101 26.5505C26.8778 26.0727 27.2387 25.6491 27.6929 25.2797C27.8149 25.1814 27.9148 25.0645 27.9928 24.9289L28.8976 23.3633C28.9172 23.329 28.9267 23.2898 28.9249 23.2503C28.923 23.2107 28.91 23.1727 28.8873 23.1409C28.8647 23.109 28.8333 23.0847 28.7972 23.071C28.7611 23.0572 28.7218 23.0546 28.6841 23.0634C28.3012 23.1379 28.1283 23.3633 28.1656 23.7394C28.1825 23.8852 28.1249 23.9919 27.9928 24.0597L27.6929 24.2122C27.5404 24.2867 27.4472 24.407 27.4133 24.5731C27.3557 24.8645 27.2032 25.1001 26.9558 25.2797C26.827 25.3712 26.7524 25.4966 26.7321 25.6558C26.6813 26.0388 26.478 26.2218 26.1221 26.2048L25.6545 25.5542C30.3158 20.5929 30.5547 12.9629 26.0865 7.81355C25.7239 7.40011 24.8886 6.63762 23.5805 5.52607L23.7279 4.55009C23.9109 4.72969 24.143 4.85847 24.4243 4.93641C24.5971 4.98725 24.7039 5.10077 24.7446 5.27699C24.8123 5.59216 25.0021 5.78532 25.3139 5.85649C25.4799 5.89376 25.6019 5.98865 25.6799 6.14115L25.9086 6.59356C26.0306 6.83078 26.1577 6.83417 26.2899 6.60373L26.4373 6.34448C26.5457 6.15809 26.4949 6.03948 26.2848 5.98865C25.868 5.88699 25.6121 5.69043 25.5172 5.39899C25.463 5.22616 25.3461 5.12788 25.1665 5.10416C25.0038 5.08383 24.8598 4.97708 24.7344 4.78392C24.6429 4.6382 24.5175 4.52975 24.3582 4.45859L21.6387 3.22335C21.8047 2.97935 21.9216 2.63708 21.9894 2.19653C23.9753 3.14541 25.7646 4.38912 27.3574 5.92765C27.9623 6.50715 28.3486 7.35605 28.9586 8.04738C29.2399 8.36932 29.4364 8.65906 29.5483 8.91662C30.7106 11.5701 31.3698 13.7779 31.5256 15.5401C31.7019 17.5057 31.3105 19.7796 30.3514 22.3619C30.1311 22.9549 29.7211 23.7056 29.1213 24.6138C27.9165 26.4539 27.4184 27.3689 25.8832 28.3906ZM27.1388 7.53905C27.1578 7.54282 27.1774 7.54252 27.1962 7.53817C27.215 7.53382 27.2326 7.52553 27.2476 7.51388C27.2627 7.50224 27.2748 7.48753 27.2833 7.47079C27.2917 7.45406 27.2962 7.43571 27.2964 7.41705C27.3031 7.17305 27.2099 6.99345 27.0168 6.87822C26.9866 6.86032 26.9525 6.85012 26.9175 6.84851C26.8825 6.84691 26.8476 6.85396 26.816 6.86903C26.7843 6.8841 26.7569 6.90674 26.736 6.93494C26.7152 6.96314 26.7016 6.99604 26.6965 7.03072C26.6559 7.29505 26.8033 7.4645 27.1388 7.53905ZM27.3269 7.80338C27.2421 7.78982 27.2099 7.82541 27.2303 7.91013C27.3014 8.20157 27.4506 8.41168 27.6776 8.54046C27.8098 8.61501 27.9487 8.57943 28.0944 8.43371C28.1209 8.40572 28.1409 8.3723 28.153 8.33578C28.1652 8.29927 28.1693 8.26053 28.1649 8.22228C28.1605 8.18404 28.1479 8.1472 28.1278 8.11436C28.1077 8.08151 28.0807 8.05345 28.0487 8.03213C27.8759 7.9203 27.6352 7.84405 27.3269 7.80338ZM28.7298 9.20636C28.7298 9.13221 28.7004 9.0611 28.648 9.00867C28.5955 8.95624 28.5244 8.92678 28.4503 8.92678C28.3761 8.92678 28.305 8.95624 28.2526 9.00867C28.2001 9.0611 28.1707 9.13221 28.1707 9.20636C28.1707 9.28051 28.2001 9.35163 28.2526 9.40406C28.305 9.45649 28.3761 9.48594 28.4503 9.48594C28.5244 9.48594 28.5955 9.45649 28.648 9.40406C28.7004 9.35163 28.7298 9.28051 28.7298 9.20636ZM29.106 10.9906C29.1331 11.055 29.1839 11.2498 29.2585 11.5752C29.2856 11.7006 29.3246 11.7954 29.3754 11.8598C29.4703 11.9784 29.5737 12.014 29.6855 11.9666C29.7939 11.9191 29.8397 11.8209 29.8227 11.6718C29.8126 11.5904 29.7736 11.4955 29.7058 11.3871C29.5262 11.1058 29.4229 10.933 29.3958 10.8686C29.3686 10.8008 29.3178 10.6043 29.2433 10.2789C29.2161 10.1536 29.1772 10.0604 29.1263 9.99935C29.0315 9.88074 28.9281 9.84347 28.8163 9.88752C28.7078 9.93497 28.6621 10.0332 28.679 10.1824C28.6858 10.2637 28.7248 10.3586 28.7959 10.467C28.9721 10.7483 29.0755 10.9228 29.106 10.9906ZM30.2241 12.7157C30.2265 12.6402 30.1886 12.5666 30.1188 12.511C30.0491 12.4553 29.9531 12.4223 29.852 12.4191C29.751 12.416 29.6531 12.4429 29.58 12.494C29.5068 12.5451 29.4644 12.6162 29.462 12.6917C29.4597 12.7671 29.4975 12.8408 29.5673 12.8964C29.6371 12.952 29.7331 12.985 29.8341 12.9882C29.9352 12.9913 30.033 12.9644 30.1062 12.9133C30.1793 12.8622 30.2217 12.7911 30.2241 12.7157ZM30.4073 13.8423C30.4073 13.8009 30.3992 13.7599 30.3833 13.7217C30.3675 13.6835 30.3443 13.6487 30.315 13.6195C30.2857 13.5902 30.251 13.567 30.2128 13.5511C30.1745 13.5353 30.1335 13.5271 30.0922 13.5271C30.0508 13.5271 30.0098 13.5353 29.9716 13.5511C29.9333 13.567 29.8986 13.5902 29.8693 13.6195C29.84 13.6487 29.8168 13.6835 29.801 13.7217C29.7851 13.7599 29.777 13.8009 29.777 13.8423C29.777 13.8837 29.7851 13.9247 29.801 13.9629C29.8168 14.0012 29.84 14.0359 29.8693 14.0652C29.8986 14.0944 29.9333 14.1176 29.9716 14.1335C30.0098 14.1493 30.0508 14.1575 30.0922 14.1575C30.1757 14.1575 30.2559 14.1243 30.315 14.0652C30.3741 14.0061 30.4073 13.9259 30.4073 13.8423ZM30.2243 14.7827C30.0108 14.9047 29.8888 15.0284 29.8583 15.1538C29.8075 15.3605 29.8871 15.4673 30.0972 15.474C30.4056 15.4808 30.5988 15.369 30.6767 15.1385C30.6937 15.0877 30.6835 15.0165 30.6462 14.925C30.609 14.8403 30.57 14.7878 30.5293 14.7675C30.4809 14.7442 30.4276 14.7334 30.3742 14.7361C30.3209 14.7387 30.2694 14.7548 30.2243 14.7827ZM30.2447 16.0434C29.8482 16.1993 29.8532 16.3772 30.2599 16.5771C30.3204 16.6065 30.3888 16.6155 30.4548 16.6027C30.5208 16.5898 30.5809 16.5559 30.6259 16.5059C30.7716 16.3399 30.7428 16.1942 30.5395 16.0688C30.4968 16.0419 30.4479 16.0255 30.3967 16.0211C30.3455 16.0167 30.2934 16.0243 30.2447 16.0434ZM29.8634 17.8428C29.8499 17.9886 29.9142 18.053 30.0566 18.036L30.4836 17.9903C30.5265 17.9847 30.5678 17.9706 30.6052 17.9488C30.6426 17.927 30.6753 17.898 30.7013 17.8634C30.7273 17.8289 30.7462 17.7895 30.7568 17.7475C30.7675 17.7056 30.7696 17.662 30.7632 17.6192C30.7394 17.4701 30.6412 17.3294 30.4683 17.1973C30.4356 17.172 30.3981 17.1537 30.358 17.1433C30.3179 17.133 30.276 17.1308 30.2348 17.137C30.1936 17.1431 30.1539 17.1575 30.1181 17.1792C30.0822 17.2009 30.0509 17.2295 30.0261 17.2634C29.938 17.3887 29.8837 17.5819 29.8634 17.8428ZM29.8482 18.6511C29.8113 18.6879 29.7856 18.7344 29.7742 18.7852C29.7627 18.8361 29.766 18.8891 29.7836 18.9382C29.8012 18.9872 29.8324 19.0302 29.8735 19.0622C29.9146 19.0942 29.964 19.1138 30.0159 19.1187C30.165 19.1323 30.304 19.0815 30.4327 18.9662C30.6056 18.8205 30.5869 18.707 30.3768 18.6257C30.143 18.5308 29.9668 18.5393 29.8482 18.6511ZM29.3584 21.5586C29.3898 21.5812 29.4259 21.5967 29.4645 21.6043C29.5031 21.6119 29.5434 21.6114 29.5833 21.6029C29.6232 21.5943 29.6617 21.5779 29.6968 21.5545C29.7319 21.5311 29.7627 21.5011 29.7877 21.4665C29.8126 21.4318 29.8311 21.393 29.8421 21.3523C29.8531 21.3116 29.8564 21.2698 29.8518 21.2293C29.8472 21.1887 29.8348 21.1503 29.8153 21.1162C29.7958 21.082 29.7696 21.0528 29.7381 21.0302C29.7067 21.0076 29.6706 20.9921 29.632 20.9845C29.5934 20.9769 29.5531 20.9774 29.5132 20.9859C29.4733 20.9945 29.4348 21.0109 29.3997 21.0343C29.3646 21.0577 29.3338 21.0876 29.3088 21.1223C29.2839 21.157 29.2654 21.1958 29.2544 21.2365C29.2434 21.2772 29.2401 21.319 29.2447 21.3595C29.2493 21.4 29.2617 21.4385 29.2812 21.4726C29.3007 21.5068 29.3269 21.536 29.3584 21.5586ZM29.3025 22.1714C29.2572 22.1197 29.1872 22.0933 29.1078 22.0982C29.0285 22.1031 28.9463 22.1387 28.8793 22.1973C28.8124 22.2559 28.7662 22.3327 28.7509 22.4107C28.7356 22.4887 28.7524 22.5616 28.7977 22.6133C28.8429 22.6651 28.913 22.6914 28.9923 22.6865C29.0717 22.6817 29.1539 22.646 29.2208 22.5874C29.2878 22.5288 29.334 22.4521 29.3493 22.374C29.3646 22.296 29.3478 22.2231 29.3025 22.1714Z" fill="#E8C98B"/>
<path d="M21.1709 3.02017C21.1887 3.06285 21.1897 3.11069 21.1737 3.15407C21.1576 3.19745 21.1258 3.23316 21.0845 3.254C20.9286 3.33533 20.788 3.29466 20.6626 3.132C20.6408 3.10345 20.625 3.07084 20.616 3.03608C20.607 3.00132 20.6051 2.96513 20.6103 2.92961C20.6155 2.89409 20.6278 2.85998 20.6463 2.82926C20.6649 2.79855 20.6895 2.77185 20.7185 2.75075C20.8947 2.62198 21.0455 2.71178 21.1709 3.02017Z" fill="#C29A5A"/>
<path d="M23.7279 4.55012C22.857 4.23496 22.1606 3.79271 21.6387 3.22339L24.3582 4.45862C24.5175 4.52979 24.6429 4.63823 24.7344 4.78395C24.8598 4.97711 25.0038 5.08386 25.1665 5.1042C25.3461 5.12792 25.463 5.22619 25.5172 5.39903C25.6121 5.69047 25.868 5.88702 26.2848 5.98869C26.4949 6.03952 26.5457 6.15813 26.4373 6.34451L26.2899 6.60376C26.1577 6.8342 26.0306 6.83081 25.9086 6.5936L25.6799 6.14118C25.6019 5.98869 25.4799 5.8938 25.3139 5.85652C25.0021 5.78535 24.8123 5.59219 24.7446 5.27703C24.7039 5.10081 24.5971 4.98728 24.4243 4.93645C24.143 4.8585 23.9109 4.72973 23.7279 4.55012Z" fill="#C29A5A"/>
<path d="M15.7377 11.0924C15.714 11.3127 15.6631 11.4618 15.5852 11.5397C15.1921 11.926 15.0108 11.8447 15.0413 11.2957C15.0582 10.967 14.9498 10.5214 14.7159 9.95881C14.4889 7.88822 13.6705 5.98199 12.2607 4.24012C16.1443 3.86396 16.9322 8.27116 15.7377 11.0924Z" fill="#E5BC7F"/>
<path d="M6.16042 3.83862C3.97461 6.21759 2.33949 8.74059 1.25506 11.4076C1.01107 12.4277 0.828068 13.4223 0.70607 14.3915C0.180798 18.509 1.09409 22.2519 3.44595 25.6205L6.09434 29.0212C3.8968 27.289 2.19202 25.0109 1.15019 22.4144C0.108359 19.8178 -0.234073 16.9937 0.157076 14.2238C0.734426 10.1156 2.88709 6.39172 6.16042 3.83862Z" fill="#9E793E"/>
<path d="M12.2601 4.24023C13.6699 5.9821 14.4883 7.88832 14.7154 9.95891C14.6069 11.0874 14.49 12.1193 14.3646 13.0546C14.2426 13.9459 14.1596 14.8422 14.1155 15.7437C14.1122 15.8148 14.0935 15.8775 14.0596 15.9317C14.019 15.9894 13.9715 16.0419 13.9173 16.0893C13.7953 16.1978 13.7394 16.3333 13.7495 16.496C13.7665 16.9162 13.7089 17.3246 13.5767 17.7211C13.7089 13.1207 12.189 9.27267 10.0693 5.14505C10.7301 4.7045 11.4604 4.40289 12.2601 4.24023Z" fill="#EBD1B0"/>
<path d="M23.2148 26.9167L21.9135 24.0192C23.1877 24.0904 24.2111 23.194 24.9838 21.3302C25.5074 20.0695 26.3766 20.8219 26.9866 20.0594C27.112 19.9035 27.0866 19.7764 26.9103 19.6781C26.5071 19.4646 26.0733 19.4765 25.609 19.7137C24.328 15.9521 22.9183 12.2633 21.3797 8.64743C20.8714 7.44778 20.6274 6.50229 20.3021 5.21622C20.1699 4.69095 20.3546 4.52998 20.8562 4.73331C26.6053 7.03603 29.6553 12.7242 28.4709 18.8445C27.8474 22.0774 26.0953 24.7682 23.2148 26.9167Z" fill="#E5BC7F"/>
<path d="M10.0697 5.14502C12.1894 9.27264 13.7093 13.1207 13.5771 17.7211L13.3535 19.8408C13.3297 20.0712 13.4348 20.1746 13.6686 20.1509L14.1922 20.0899C14.3718 20.0696 14.4633 20.1509 14.4667 20.3339L14.4921 22.2554C12.7536 22.313 11.049 22.213 9.37833 21.9554C9.21566 21.9317 9.09027 21.8741 9.00216 21.7826C8.87339 21.6505 8.80392 21.5149 8.79375 21.376C8.67514 21.1557 8.61753 20.9659 8.62092 20.8066C8.62431 20.6338 8.71242 20.5457 8.88525 20.5423L11.737 20.4711C11.92 20.4644 12.0284 20.3729 12.0623 20.1966C12.1267 19.8849 12.1047 19.5595 11.9962 19.2206C11.7421 16.7265 10.9084 14.2662 9.49524 11.8397C9.35291 11.5923 9.20888 11.489 9.06316 11.5297C8.89033 11.289 8.68531 11.1721 8.44809 11.1789C8.25831 11.1823 8.07701 11.2857 7.90418 11.489C7.73473 11.6923 7.57715 11.9143 7.43143 12.1549C7.3196 12.3481 7.1976 12.3548 7.06544 12.1752C6.86211 11.8872 6.74689 11.5568 6.71977 11.184C6.19111 10.7299 5.83528 10.1859 5.65229 9.55222C5.60823 9.38956 5.63534 9.23875 5.73362 9.09981C6.02506 8.68976 6.21822 8.2831 6.31311 7.87982L10.0697 5.14502Z" fill="#F9E9D3"/>
<path d="M27.1393 7.53914C26.8038 7.46459 26.6564 7.29515 26.697 7.03082C26.7021 6.99613 26.7157 6.96323 26.7365 6.93503C26.7574 6.90683 26.7848 6.8842 26.8165 6.86912C26.8481 6.85405 26.883 6.847 26.918 6.84861C26.9531 6.85021 26.9871 6.86042 27.0173 6.87832C27.2105 6.99354 27.3036 7.17315 27.2969 7.41715C27.2967 7.4358 27.2922 7.45415 27.2838 7.47089C27.2753 7.48762 27.2632 7.50233 27.2481 7.51398C27.2331 7.52562 27.2155 7.53391 27.1967 7.53826C27.1779 7.54261 27.1583 7.54291 27.1393 7.53914Z" fill="#9E793E"/>
<path d="M27.3271 7.80359C27.6354 7.84426 27.876 7.9205 28.0489 8.03234C28.0809 8.05366 28.1079 8.08172 28.128 8.11457C28.1481 8.14741 28.1607 8.18425 28.1651 8.22249C28.1695 8.26074 28.1654 8.29947 28.1532 8.33599C28.1411 8.37251 28.1211 8.40593 28.0946 8.43391C27.9489 8.57964 27.81 8.61522 27.6778 8.54066C27.4507 8.41189 27.3016 8.20178 27.2305 7.91034C27.2101 7.82562 27.2423 7.79003 27.3271 7.80359Z" fill="#9E793E"/>
<path d="M6.31286 7.87988C6.21797 8.28315 6.02481 8.68981 5.73337 9.09986C5.63509 9.2388 5.60798 9.38961 5.65204 9.55227C5.83503 10.186 6.19086 10.7299 6.71952 11.184C6.23492 11.2145 6.07056 11.4093 6.22645 11.7685C6.61955 12.6666 6.50772 13.3477 5.89095 13.812C5.76895 13.9035 5.70117 14.0255 5.68762 14.178L5.14879 19.8154C5.14069 19.8954 5.14914 19.9764 5.17361 20.0533C5.19809 20.1303 5.23808 20.2015 5.29112 20.2627L6.22136 21.3759L8.14284 23.6786C8.25467 23.8142 8.397 23.8837 8.56983 23.8871L11.2233 23.9481L13.1956 28.8992C10.7387 28.2553 8.80197 27.2471 7.38543 25.8746C3.98981 22.5739 2.70374 18.6157 3.52723 14.0001C3.9305 11.7533 4.85905 9.71324 6.31286 7.87988Z" fill="#E8C98B"/>
<path d="M28.4505 9.48616C28.6049 9.48616 28.7301 9.36098 28.7301 9.20658C28.7301 9.05217 28.6049 8.927 28.4505 8.927C28.2961 8.927 28.1709 9.05217 28.1709 9.20658C28.1709 9.36098 28.2961 9.48616 28.4505 9.48616Z" fill="#9E793E"/>
<path d="M16.2351 19.9982C15.8013 19.9236 15.4506 19.9575 15.1828 20.0998C14.9761 20.2083 14.8863 20.3777 14.9134 20.6081L15.0557 21.8942C15.0761 22.0738 15.1777 22.1653 15.3607 22.1687L16.3215 22.1789C15.786 22.3314 15.1761 22.3568 14.4915 22.2551L14.4661 20.3337C14.4627 20.1507 14.3712 20.0693 14.1916 20.0897L13.668 20.1507C13.4342 20.1744 13.3291 20.071 13.3529 19.8406L13.5765 17.7208C13.7087 17.3244 13.7663 16.916 13.7493 16.4958C13.7392 16.3331 13.7951 16.1976 13.9171 16.0891C13.9713 16.0417 14.0188 15.9891 14.0594 15.9315C14.0933 15.8773 14.112 15.8146 14.1153 15.7435C14.1594 14.842 14.2424 13.9457 14.3644 13.0544C14.4898 12.1191 14.6067 11.0872 14.7152 9.95872C14.949 10.5212 15.0574 10.9669 15.0405 11.2956C15.01 11.8446 15.1913 11.9259 15.5844 11.5396C15.6624 11.4616 15.7132 11.3125 15.7369 11.0923C16.9569 10.3162 18.2616 9.87569 19.651 9.77064C19.8408 9.75708 19.9492 9.84519 19.9764 10.035C19.9865 10.1163 19.9781 10.1993 19.9509 10.2841C19.9238 10.3688 19.8527 10.445 19.7374 10.5128C18.2091 11.3701 16.6722 12.2496 15.1269 13.151C15.0693 13.1849 15.049 13.234 15.0659 13.2984L15.1574 13.6288C15.1607 13.6394 15.1662 13.6491 15.1736 13.6573C15.181 13.6655 15.1901 13.672 15.2002 13.6764C15.2104 13.6807 15.2213 13.6828 15.2324 13.6825C15.2434 13.6822 15.2543 13.6795 15.2642 13.6746L18.9241 11.8243C19.1986 11.6853 19.468 11.6921 19.7324 11.8446L19.9611 11.9767C20.2898 12.1665 20.2847 12.3478 19.9459 12.5207L15.0507 15.0013C14.9287 15.0623 14.9066 15.147 14.9846 15.2555L15.0761 15.3825C15.0896 15.4029 15.1066 15.408 15.1269 15.3978C15.9064 15.1131 16.9162 14.6997 18.1565 14.1575C18.7089 13.9135 19.9306 13.6576 21.8216 13.3899C21.9538 13.373 22.0368 13.4272 22.0707 13.5526L22.1774 13.9338C22.2384 14.1643 22.1537 14.31 21.9233 14.371L15.3506 16.1755C15.1405 16.2365 15.0524 16.3738 15.0862 16.5873L15.1066 16.7194C15.1108 16.7442 15.12 16.7679 15.1337 16.7889C15.1474 16.81 15.1653 16.828 15.1863 16.8418C15.2073 16.8557 15.2309 16.865 15.2557 16.8693C15.2804 16.8736 15.3058 16.8728 15.3302 16.8669C16.3977 16.5991 17.4483 16.3128 18.4819 16.0078C19.7069 15.6469 21.2573 15.6367 22.6095 15.596C22.7654 15.5893 22.9501 15.6486 23.1636 15.774C23.4042 15.9129 23.5465 16.018 23.5906 16.0891C23.838 16.4653 23.6888 16.6957 23.1432 16.7804L15.7166 17.914C15.5329 17.9415 15.3638 18.0075 15.2283 18.1044C15.0927 18.2014 14.996 18.3256 14.949 18.463C14.9388 18.4935 14.9609 18.5325 15.0151 18.5799C15.1235 18.6714 15.2472 18.7104 15.3862 18.6968L23.2449 17.8174C23.4313 17.7971 23.5533 17.875 23.6109 18.0513C23.8041 18.6579 23.8718 19.1357 23.8142 19.4847C23.7837 19.661 23.6804 19.7406 23.5041 19.7237C21.0405 19.5068 18.6174 19.5983 16.2351 19.9982Z" fill="#C29A5A"/>
<path d="M29.396 10.8686C29.4231 10.933 29.5265 11.1058 29.7061 11.3871C29.7738 11.4955 29.8128 11.5904 29.823 11.6718C29.8399 11.8209 29.7942 11.9191 29.6857 11.9666C29.5739 12.014 29.4705 11.9784 29.3756 11.8598C29.3248 11.7954 29.2858 11.7006 29.2587 11.5752C29.1842 11.2498 29.1333 11.055 29.1062 10.9906C29.0757 10.9228 28.9724 10.7483 28.7962 10.467C28.725 10.3586 28.686 10.2637 28.6792 10.1824C28.6623 10.0332 28.708 9.93497 28.8165 9.88752C28.9283 9.84347 29.0317 9.88075 29.1266 9.99936C29.1774 10.0604 29.2164 10.1536 29.2435 10.2789C29.318 10.6043 29.3689 10.8008 29.396 10.8686Z" fill="#C29A5A"/>
<path d="M3.44623 25.6205C1.09437 22.252 0.181075 18.509 0.706346 14.3915C0.828345 13.4223 1.01134 12.4277 1.25534 11.4076L2.04833 10.1927C2.16355 10.0165 2.2686 10.0232 2.36349 10.213L2.65832 10.7926C2.7261 10.9315 2.83623 10.9925 2.98873 10.9756C3.04634 10.9688 3.09887 10.9535 3.14631 10.9298C3.28526 10.8586 3.33948 10.7468 3.30898 10.5943C3.23442 10.2079 3.31067 10.0012 3.53773 9.97411C3.61896 9.96418 3.70108 9.97606 3.77624 10.0086C3.8514 10.0412 3.91709 10.0934 3.96705 10.1601C4.017 10.2269 4.04956 10.3061 4.06161 10.3901C4.07366 10.4741 4.06481 10.5602 4.03589 10.6401C3.06329 13.2563 2.73118 15.947 3.03956 18.7123C3.25645 20.6677 4.15958 22.6942 5.74895 24.7919C5.86417 24.9444 5.90992 25.063 5.8862 25.1477C5.88281 25.1613 5.80486 25.2121 5.65237 25.3002C5.52359 25.3714 5.40159 25.3612 5.28637 25.2697C5.10676 25.1206 4.94749 24.9512 4.80854 24.7614C4.68316 24.592 4.56794 24.4937 4.46288 24.4666C4.33072 24.4361 4.21041 24.4513 4.10197 24.5123C3.88847 24.6343 3.86814 24.7817 4.04097 24.9546L4.3358 25.2494C4.41713 25.3341 4.43746 25.4307 4.3968 25.5391C4.37647 25.5967 4.3341 25.6459 4.26972 25.6866C4.21211 25.7238 4.14941 25.7374 4.08164 25.7272L3.44623 25.6205ZM2.77523 11.7279C2.77523 11.647 2.7431 11.5694 2.6859 11.5122C2.6287 11.455 2.55113 11.4229 2.47024 11.4229C2.38935 11.4229 2.31177 11.455 2.25457 11.5122C2.19737 11.5694 2.16524 11.647 2.16524 11.7279C2.16524 11.8088 2.19737 11.8863 2.25457 11.9435C2.31177 12.0007 2.38935 12.0329 2.47024 12.0329C2.55113 12.0329 2.6287 12.0007 2.6859 11.9435C2.7431 11.8863 2.77523 11.8088 2.77523 11.7279ZM2.41432 12.8615C2.42223 12.8204 2.42452 12.7814 2.42098 12.7478C2.41744 12.7141 2.40818 12.6869 2.39399 12.6683C2.36688 12.6344 2.31774 12.5988 2.24657 12.5615C2.12796 12.5005 2.03985 12.531 1.98224 12.653C1.86363 12.9072 1.85177 13.1326 1.94666 13.3291C1.95991 13.3566 1.98022 13.3802 2.00553 13.3973C2.03083 13.4144 2.06022 13.4245 2.0907 13.4266C2.12118 13.4287 2.15166 13.4226 2.17905 13.4091C2.20643 13.3955 2.22973 13.3749 2.24657 13.3494C2.31774 13.2444 2.37366 13.0817 2.41432 12.8615ZM1.54 14.2441C1.61794 14.4678 1.82975 14.5355 2.17541 14.4474C2.20436 14.4406 2.23089 14.426 2.25211 14.4052C2.27333 14.3843 2.28843 14.358 2.29577 14.3292C2.30311 14.3004 2.3024 14.2701 2.29373 14.2417C2.28505 14.2132 2.26874 14.1877 2.24657 14.1679C2.02969 13.9781 1.83822 13.912 1.67216 13.9696C1.53661 14.0171 1.49256 14.1085 1.54 14.2441ZM1.39258 15.337C1.40275 15.5098 1.49425 15.62 1.66708 15.6674C1.71852 15.6829 1.77324 15.6837 1.82514 15.6699C1.87704 15.6561 1.92407 15.6281 1.96098 15.5891C1.99789 15.55 2.02322 15.5015 2.03416 15.4489C2.0451 15.3963 2.0412 15.3418 2.02291 15.2913C1.98224 15.1625 1.87211 15.0862 1.6925 15.0625C1.48239 15.0354 1.38242 15.1269 1.39258 15.337ZM1.39258 16.5265L1.36717 16.7807C1.35361 16.9162 1.41631 16.9874 1.55525 16.9942C1.64336 16.9975 1.71283 16.9891 1.76366 16.9687C1.90599 16.9043 1.95174 16.7993 1.90091 16.6536C1.84669 16.4943 1.74502 16.4011 1.59591 16.374C1.57243 16.3697 1.5483 16.3702 1.52505 16.3757C1.5018 16.3811 1.47994 16.3914 1.46083 16.4057C1.44173 16.42 1.4258 16.4381 1.41405 16.4589C1.40231 16.4797 1.395 16.5027 1.39258 16.5265ZM2.17541 17.9091C2.1902 17.9007 2.20249 17.8885 2.21105 17.8738C2.2196 17.859 2.2241 17.8423 2.2241 17.8253C2.2241 17.8082 2.2196 17.7915 2.21105 17.7768C2.20249 17.762 2.1902 17.7498 2.17541 17.7414C1.9653 17.6262 1.76366 17.5872 1.5705 17.6245C1.46544 17.6414 1.40275 17.7024 1.38242 17.8075C1.37225 17.8549 1.37225 17.899 1.38242 17.9396C1.42308 18.082 1.51628 18.1379 1.662 18.1074C1.86872 18.0599 2.03985 17.9939 2.17541 17.9091ZM2.4804 20.3237C2.4804 20.2877 2.4733 20.252 2.45951 20.2187C2.44571 20.1853 2.4255 20.1551 2.40001 20.1296C2.37452 20.1041 2.34426 20.0839 2.31095 20.0701C2.27765 20.0563 2.24195 20.0492 2.20591 20.0492C2.16986 20.0492 2.13417 20.0563 2.10086 20.0701C2.06756 20.0839 2.0373 20.1041 2.01181 20.1296C1.98632 20.1551 1.9661 20.1853 1.95231 20.2187C1.93851 20.252 1.93141 20.2877 1.93141 20.3237C1.93141 20.3965 1.96033 20.4663 2.01181 20.5178C2.06329 20.5693 2.13311 20.5982 2.20591 20.5982C2.27871 20.5982 2.34853 20.5693 2.40001 20.5178C2.45148 20.4663 2.4804 20.3965 2.4804 20.3237ZM3.48181 23.7651L3.51739 24.0192C3.5246 24.0644 3.54548 24.1063 3.57723 24.1392C3.60897 24.1721 3.65005 24.1945 3.69492 24.2034C3.73979 24.2123 3.7863 24.2072 3.82818 24.1888C3.87006 24.1704 3.9053 24.1396 3.92914 24.1006C4.10197 23.8091 4.04436 23.5922 3.75631 23.4499C3.60042 23.372 3.50384 23.2483 3.46656 23.0788C3.38184 22.6925 3.20731 22.3723 2.94298 22.1181C2.81421 21.9961 2.77523 21.8487 2.82607 21.6758C2.90401 21.398 2.84301 21.2167 2.64307 21.1319C2.40924 21.0303 2.32452 21.1031 2.38891 21.3505C2.58546 22.0893 2.87859 22.7213 3.26831 23.2466C3.38014 23.4025 3.45131 23.5753 3.48181 23.7651Z" fill="#E5BC7F"/>
<path d="M6.71922 11.1838C6.74633 11.5565 6.86155 11.887 7.06488 12.175C7.19705 12.3546 7.31904 12.3478 7.43088 12.1547C7.5766 11.9141 7.73418 11.6921 7.90362 11.4888C8.07645 11.2854 8.25775 11.1821 8.44753 11.1787C8.68475 11.1719 8.88978 11.2888 9.06261 11.5294L9.4896 12.1699C9.59804 12.336 9.56416 12.4647 9.38794 12.5562L7.50712 13.5068C7.44248 13.5397 7.39131 13.5939 7.36252 13.6598C7.33372 13.7258 7.32913 13.7993 7.34954 13.8677L7.41563 14.127C7.42918 14.1676 7.4546 14.1795 7.49188 14.1626C8.46109 13.739 9.08633 13.4407 9.3676 13.2679C9.6116 13.1154 9.80815 13.0832 9.95726 13.1713C10.1267 13.273 10.1436 13.395 10.0081 13.5373C9.37438 14.2015 8.58139 14.6929 7.62912 15.0115C7.50374 15.0521 7.45799 15.1352 7.49188 15.2606L7.54779 15.4486C7.5749 15.5503 7.6376 15.5825 7.73587 15.5452L9.62685 14.7827C9.85051 14.6912 10.086 14.6963 10.3334 14.798C10.4351 14.8386 10.5316 14.9166 10.6231 15.0318C10.8163 15.2792 10.7621 15.4452 10.4605 15.53L8.25437 16.1349C8.23549 16.1402 8.21803 16.1497 8.20327 16.1626C8.18851 16.1755 8.17681 16.1916 8.16902 16.2096C8.16123 16.2276 8.15755 16.2471 8.15825 16.2667C8.15894 16.2863 8.16399 16.3055 8.17303 16.323L8.28487 16.5466C8.34925 16.672 8.45092 16.7161 8.58986 16.6788L10.7197 16.0942C10.8232 16.0655 10.9313 16.0691 11.0258 16.1043C11.1202 16.1394 11.1953 16.2041 11.2382 16.2874L11.3399 16.4907C11.3539 16.5199 11.3615 16.5518 11.362 16.5841C11.3625 16.6164 11.3559 16.6482 11.3428 16.6774C11.3296 16.7066 11.3103 16.7324 11.286 16.7528C11.2618 16.7733 11.2333 16.7879 11.2026 16.7957L8.14762 17.6344C8.01884 17.6717 7.97309 17.753 8.01037 17.8784L8.04595 18.0055C8.07306 18.1106 8.14084 18.1546 8.24928 18.1377L11.0247 17.7158C11.1085 17.704 11.1901 17.71 11.2577 17.7328C11.3253 17.7557 11.3755 17.7942 11.4009 17.8429L11.5381 18.1174C11.552 18.145 11.5596 18.1754 11.5603 18.2063C11.5609 18.2372 11.5547 18.2679 11.5421 18.2962C11.5294 18.3244 11.5106 18.3494 11.4871 18.3695C11.4636 18.3896 11.4358 18.4042 11.406 18.4122L10.1046 18.768C10.0098 18.7951 9.95387 18.8578 9.93693 18.9561C9.92337 19.0103 9.92337 19.0611 9.93693 19.1086C9.97082 19.2543 10.064 19.3238 10.2165 19.317L11.9956 19.2204C12.1041 19.5593 12.1261 19.8846 12.0617 20.1964C12.0278 20.3726 11.9194 20.4641 11.7364 20.4709L8.88469 20.5421C8.71186 20.5455 8.62375 20.6336 8.62036 20.8064C8.61697 20.9657 8.67458 21.1555 8.79319 21.3757C7.41393 20.9047 6.55655 20.9047 6.22106 21.3757L5.29082 20.2625C5.23777 20.2013 5.19778 20.1301 5.17331 20.0531C5.14883 19.9762 5.14038 19.8952 5.14849 19.8152L5.68731 14.1778C5.70087 14.0253 5.76865 13.9033 5.89064 13.8118C6.50741 13.3475 6.61925 12.6664 6.22614 11.7683C6.07025 11.4091 6.23461 11.2143 6.71922 11.1838Z" fill="#C29A5A"/>
<path d="M2.47003 12.0329C2.63848 12.0329 2.77503 11.8963 2.77503 11.7279C2.77503 11.5594 2.63848 11.4229 2.47003 11.4229C2.30159 11.4229 2.16504 11.5594 2.16504 11.7279C2.16504 11.8963 2.30159 12.0329 2.47003 12.0329Z" fill="#C29A5A"/>
<path d="M11.9956 19.2206L10.2165 19.3172C10.064 19.324 9.97074 19.2545 9.93685 19.1088C9.92329 19.0613 9.92329 19.0105 9.93685 18.9563C9.95379 18.858 10.0097 18.7953 10.1046 18.7682L11.4059 18.4124C11.4358 18.4043 11.4635 18.3898 11.4871 18.3697C11.5106 18.3496 11.5294 18.3246 11.5421 18.2963C11.5547 18.2681 11.5609 18.2374 11.5602 18.2065C11.5596 18.1756 11.552 18.1452 11.5381 18.1175L11.4009 17.843C11.3754 17.7944 11.3253 17.7559 11.2577 17.733C11.1901 17.7102 11.1085 17.7042 11.0247 17.716L8.24921 18.1379C8.14077 18.1548 8.07299 18.1108 8.04588 18.0057L8.0103 17.8786C7.97302 17.7532 8.01877 17.6719 8.14755 17.6346L11.2026 16.7959C11.2333 16.7881 11.2618 16.7735 11.286 16.753C11.3102 16.7326 11.3296 16.7068 11.3428 16.6776C11.3559 16.6484 11.3624 16.6165 11.3619 16.5843C11.3614 16.552 11.3539 16.5201 11.3399 16.4909L11.2382 16.2876C11.1952 16.2043 11.1202 16.1396 11.0258 16.1045C10.9313 16.0693 10.8232 16.0657 10.7197 16.0944L8.58979 16.679C8.45085 16.7163 8.34917 16.6722 8.28478 16.5468L8.17296 16.3231C8.16392 16.3057 8.15886 16.2865 8.15817 16.2669C8.15747 16.2473 8.16115 16.2278 8.16894 16.2098C8.17673 16.1918 8.18844 16.1757 8.2032 16.1628C8.21796 16.1499 8.23541 16.1404 8.25429 16.1351L10.4605 15.5302C10.7621 15.4454 10.8163 15.2794 10.6231 15.032C10.5316 14.9168 10.435 14.8388 10.3334 14.7982C10.086 14.6965 9.85044 14.6914 9.62678 14.7829L7.7358 15.5454C7.63752 15.5827 7.57483 15.5505 7.54772 15.4488L7.4918 15.2607C7.45792 15.1354 7.50367 15.0523 7.62905 15.0117C8.58132 14.6931 9.37431 14.2017 10.008 13.5375C10.1436 13.3952 10.1267 13.2732 9.95719 13.1715C9.80808 13.0834 9.61153 13.1156 9.36753 13.2681C9.08626 13.4409 8.46101 13.7392 7.4918 14.1628C7.45453 14.1797 7.4291 14.1678 7.41556 14.1272L7.34947 13.8679C7.32906 13.7995 7.33365 13.726 7.36245 13.66C7.39124 13.5941 7.44241 13.5399 7.50705 13.507L9.38786 12.5564C9.56407 12.4649 9.59797 12.3362 9.48953 12.1701L9.06253 11.5296C9.20825 11.489 9.35228 11.5923 9.49461 11.8397C10.9078 14.2661 11.7414 16.7264 11.9956 19.2206Z" fill="#E5BC7F"/>
<path d="M29.8341 12.9883C30.0446 12.9949 30.2192 12.8729 30.2241 12.7157C30.2291 12.5586 30.0625 12.4259 29.852 12.4192C29.6416 12.4126 29.4669 12.5346 29.462 12.6918C29.4571 12.8489 29.6237 12.9817 29.8341 12.9883Z" fill="#C29A5A"/>
<path d="M2.41373 12.8614C2.37306 13.0817 2.31715 13.2444 2.24598 13.3494C2.22913 13.3749 2.20583 13.3955 2.17845 13.409C2.15107 13.4226 2.12058 13.4286 2.0901 13.4266C2.05962 13.4245 2.03023 13.4144 2.00493 13.3973C1.97963 13.3801 1.95932 13.3566 1.94607 13.3291C1.85118 13.1325 1.86304 12.9072 1.98165 12.653C2.03926 12.531 2.12737 12.5005 2.24598 12.5615C2.31715 12.5988 2.36628 12.6344 2.39339 12.6683C2.40758 12.6868 2.41684 12.7141 2.42038 12.7477C2.42392 12.7814 2.42164 12.8204 2.41373 12.8614Z" fill="#C29A5A"/>
<path d="M30.0924 14.1576C30.2665 14.1576 30.4076 14.0165 30.4076 13.8424C30.4076 13.6684 30.2665 13.5273 30.0924 13.5273C29.9184 13.5273 29.7773 13.6684 29.7773 13.8424C29.7773 14.0165 29.9184 14.1576 30.0924 14.1576Z" fill="#C29A5A"/>
<path d="M1.6721 13.9696C1.83815 13.912 2.02962 13.9781 2.24651 14.1678C2.26868 14.1877 2.28499 14.2132 2.29366 14.2417C2.30233 14.2701 2.30304 14.3004 2.2957 14.3292C2.28836 14.358 2.27326 14.3843 2.25204 14.4051C2.23082 14.426 2.20429 14.4406 2.17534 14.4474C1.82968 14.5355 1.61788 14.4678 1.53993 14.2441C1.49249 14.1085 1.53654 14.017 1.6721 13.9696Z" fill="#C29A5A"/>
<path d="M30.2246 14.7828C30.2696 14.7549 30.3212 14.7388 30.3745 14.7362C30.4278 14.7335 30.4811 14.7443 30.5296 14.7676C30.5702 14.7879 30.6092 14.8404 30.6465 14.9252C30.6838 15.0167 30.6939 15.0878 30.677 15.1386C30.599 15.3691 30.4059 15.4809 30.0975 15.4741C29.8874 15.4674 29.8077 15.3606 29.8586 15.1539C29.8891 15.0285 30.0111 14.9048 30.2246 14.7828Z" fill="#C29A5A"/>
<path d="M1.69222 15.0625C1.87183 15.0862 1.98197 15.1625 2.02263 15.2913C2.04092 15.3418 2.04482 15.3964 2.03388 15.4489C2.02295 15.5015 1.99761 15.55 1.9607 15.5891C1.92379 15.6281 1.87676 15.6561 1.82486 15.6699C1.77296 15.6838 1.71824 15.6829 1.6668 15.6674C1.49397 15.62 1.40247 15.5099 1.39231 15.337C1.38214 15.1269 1.48211 15.0354 1.69222 15.0625Z" fill="#C29A5A"/>
<path d="M30.2448 16.0435C30.2935 16.0244 30.3456 16.0168 30.3968 16.0212C30.448 16.0256 30.4969 16.042 30.5396 16.0689C30.7429 16.1943 30.7717 16.34 30.626 16.506C30.581 16.556 30.5209 16.5899 30.4549 16.6028C30.3889 16.6156 30.3205 16.6066 30.26 16.5772C29.8533 16.3773 29.8483 16.1993 30.2448 16.0435Z" fill="#C29A5A"/>
<path d="M1.39246 16.5265C1.39487 16.5027 1.40218 16.4797 1.41393 16.4589C1.42567 16.4381 1.4416 16.42 1.4607 16.4057C1.47981 16.3913 1.50168 16.3811 1.52493 16.3757C1.54818 16.3702 1.5723 16.3696 1.59579 16.374C1.7449 16.4011 1.84656 16.4943 1.90078 16.6536C1.95162 16.7993 1.90587 16.9043 1.76353 16.9687C1.7127 16.9891 1.64323 16.9975 1.55512 16.9941C1.41618 16.9874 1.35348 16.9162 1.36704 16.7806L1.39246 16.5265Z" fill="#C29A5A"/>
<path d="M29.8641 17.8431C29.8844 17.5821 29.9387 17.3889 30.0268 17.2636C30.0516 17.2297 30.0829 17.2011 30.1188 17.1794C30.1546 17.1577 30.1943 17.1434 30.2355 17.1372C30.2767 17.131 30.3186 17.1332 30.3587 17.1436C30.3988 17.1539 30.4363 17.1722 30.469 17.1975C30.6418 17.3296 30.7401 17.4703 30.7638 17.6194C30.7703 17.6622 30.7681 17.7058 30.7575 17.7477C30.7469 17.7897 30.728 17.8291 30.702 17.8636C30.676 17.8982 30.6433 17.9272 30.6059 17.949C30.5685 17.9708 30.5272 17.9849 30.4843 17.9905L30.0573 18.0362C29.9149 18.0532 29.8506 17.9888 29.8641 17.8431Z" fill="#C29A5A"/>
<path d="M2.17562 17.9091C2.04006 17.9938 1.86893 18.0599 1.66221 18.1074C1.51649 18.1379 1.42329 18.082 1.38263 17.9396C1.37246 17.899 1.37246 17.8549 1.38263 17.8075C1.40296 17.7024 1.46565 17.6414 1.57071 17.6245C1.76387 17.5872 1.96551 17.6262 2.17562 17.7414C2.19041 17.7498 2.2027 17.762 2.21126 17.7768C2.21981 17.7915 2.22431 17.8082 2.22431 17.8253C2.22431 17.8423 2.21981 17.859 2.21126 17.8737C2.2027 17.8885 2.19041 17.9007 2.17562 17.9091Z" fill="#C29A5A"/>
<path d="M29.8483 18.6513C29.9669 18.5394 30.1431 18.531 30.3769 18.6259C30.587 18.7072 30.6057 18.8207 30.4328 18.9664C30.3041 19.0817 30.1651 19.1325 30.016 19.1189C29.9641 19.114 29.9147 19.0944 29.8736 19.0624C29.8325 19.0304 29.8013 18.9874 29.7837 18.9384C29.7661 18.8893 29.7628 18.8363 29.7743 18.7854C29.7857 18.7346 29.8114 18.6881 29.8483 18.6513Z" fill="#9E793E"/>
<path d="M21.9137 24.0192L15.6765 23.9531L11.2236 23.948L8.57015 23.8871C8.39732 23.8837 8.25498 23.8141 8.14315 23.6786L6.22168 21.3759C6.55717 20.9048 7.41455 20.9048 8.79381 21.3759C8.80398 21.5148 8.87345 21.6503 9.00223 21.7825C9.09034 21.874 9.21572 21.9316 9.37839 21.9553C11.049 22.2129 12.7536 22.3129 14.4921 22.2553C15.1767 22.3569 15.7867 22.3315 16.3221 22.179L18.3859 21.8843C19.3483 21.7487 20.2633 21.4657 21.1309 21.0353C22.0594 20.5744 22.7795 20.2846 23.2913 20.166C24.0707 19.9898 24.8434 19.839 25.6092 19.7136C26.0735 19.4764 26.5073 19.4645 26.9106 19.678C27.0868 19.7763 27.1122 19.9034 26.9868 20.0593C26.3768 20.8218 25.5076 20.0695 24.984 21.3302C24.2113 23.1941 23.1879 24.0903 21.9137 24.0192Z" fill="#956F48"/>
<path d="M16.2356 19.9984L18.0503 20.222C18.1808 20.2373 18.3054 20.2848 18.4131 20.3602C18.5207 20.4356 18.6081 20.5366 18.6674 20.6543C18.7268 20.7719 18.7562 20.9026 18.7532 21.0347C18.7502 21.1668 18.7148 21.2962 18.6501 21.4115L18.3858 21.8843L16.322 22.1791L15.3613 22.1689C15.1783 22.1655 15.0766 22.074 15.0563 21.8944L14.9139 20.6083C14.8868 20.3779 14.9766 20.2085 15.1833 20.1C15.4511 19.9577 15.8018 19.9238 16.2356 19.9984Z" fill="#F4DEBA"/>
<path d="M2.20516 20.5981C2.35676 20.5981 2.47966 20.4752 2.47966 20.3236C2.47966 20.172 2.35676 20.0491 2.20516 20.0491C2.05356 20.0491 1.93066 20.172 1.93066 20.3236C1.93066 20.4752 2.05356 20.5981 2.20516 20.5981Z" fill="#9E793E"/>
<path d="M29.3093 21.1225C29.2045 21.2685 29.2267 21.4638 29.3589 21.5588C29.4912 21.6538 29.6834 21.6125 29.7882 21.4666C29.893 21.3207 29.8708 21.1254 29.7386 21.0304C29.6064 20.9354 29.4142 20.9766 29.3093 21.1225Z" fill="#9E793E"/>
<path d="M3.26843 23.2464C2.87871 22.7211 2.58557 22.0891 2.38902 21.3503C2.32463 21.103 2.40935 21.0301 2.64318 21.1318C2.84313 21.2165 2.90413 21.3978 2.82618 21.6757C2.77535 21.8485 2.81432 21.9959 2.9431 22.1179C3.20743 22.3721 3.38195 22.6923 3.46667 23.0786C3.50395 23.2481 3.60053 23.3718 3.75642 23.4497C4.04447 23.5921 4.10208 23.8089 3.92925 24.1004C3.90541 24.1394 3.87018 24.1702 3.8283 24.1886C3.78642 24.207 3.73991 24.2121 3.69503 24.2032C3.65016 24.1944 3.60909 24.172 3.57734 24.139C3.5456 24.1061 3.52472 24.0642 3.51751 24.0191L3.48192 23.7649C3.45142 23.5751 3.38026 23.4023 3.26843 23.2464Z" fill="#C29A5A"/>
<path d="M29.2217 22.5874C29.3611 22.4654 29.3976 22.2791 29.3033 22.1714C29.209 22.0637 29.0195 22.0753 28.8801 22.1973C28.7407 22.3194 28.7042 22.5056 28.7985 22.6134C28.8928 22.7211 29.0822 22.7095 29.2217 22.5874Z" fill="#9E793E"/>
<path d="M25.7969 26.4337C25.902 26.3286 26.0104 26.2524 26.1223 26.2049C26.4781 26.2219 26.6814 26.0389 26.7322 25.656C26.7526 25.4967 26.8271 25.3713 26.9559 25.2798C27.2033 25.1002 27.3558 24.8647 27.4134 24.5732C27.4473 24.4072 27.5405 24.2869 27.693 24.2123L27.9929 24.0598C28.1251 23.992 28.1827 23.8853 28.1657 23.7396C28.1284 23.3634 28.3013 23.138 28.6842 23.0635C28.7219 23.0547 28.7613 23.0573 28.7974 23.0711C28.8335 23.0849 28.8648 23.1092 28.8874 23.141C28.9101 23.1729 28.9232 23.2109 28.925 23.2504C28.9268 23.2899 28.9173 23.3292 28.8977 23.3634L27.9929 24.929C27.915 25.0646 27.815 25.1815 27.693 25.2798C27.2389 25.6492 26.878 26.0728 26.6102 26.5506C26.559 26.6415 26.4792 26.713 26.3828 26.7543C26.2864 26.7957 26.1789 26.8044 26.0765 26.7794C25.8732 26.7285 25.78 26.6133 25.7969 26.4337Z" fill="#C29A5A"/>
<path d="M15.6765 23.9531L16.9118 24.0547C17.0846 24.0683 17.21 24.1547 17.2879 24.314L19.4737 28.6754C17.4032 29.3769 15.3105 29.4515 13.1959 28.8991L11.2236 23.948L15.6765 23.9531Z" fill="#F9E9D3"/>
<path d="M21.914 24.0192L23.2153 26.9166C21.975 27.7706 20.7279 28.3569 19.474 28.6754L17.2882 24.314C17.2103 24.1547 17.0849 24.0683 16.9121 24.0547L15.6768 23.9531L21.914 24.0192Z" fill="#EBD1B0"/>
<path d="M26.1226 26.205C26.0108 26.2525 25.9024 26.3287 25.7973 26.4338C25.3432 27.1454 24.7417 27.6504 23.9927 27.9486C23.9564 27.9635 23.9244 27.9875 23.9001 28.0183C23.8757 28.0492 23.8596 28.0858 23.8535 28.1246C23.8474 28.1634 23.8514 28.2032 23.8651 28.24C23.8788 28.2768 23.9017 28.3095 23.9317 28.3349C24.0029 28.3925 24.0825 28.4315 24.1707 28.4518C24.3638 28.4993 24.5095 28.4366 24.6078 28.2637L24.7654 27.9893C24.8501 27.8469 24.9755 27.7707 25.1416 27.7605C25.4533 27.747 25.6634 27.5792 25.7719 27.2573C25.8634 26.9895 25.9498 26.9895 26.0311 27.2573C26.1328 27.5995 26.0837 27.9774 25.8837 28.3908L23.4692 30.0327C21.8595 30.8257 20.2108 31.4408 18.5231 31.878C17.6285 32.1118 16.5762 32.1304 15.3664 31.9339C15.3039 31.9236 15.2446 31.8989 15.1933 31.8617C15.1419 31.8245 15.1 31.7758 15.0709 31.7195C15.0418 31.6632 15.0262 31.6008 15.0254 31.5374C15.0247 31.4741 15.0387 31.4114 15.0665 31.3544C15.2326 31.0155 15.5715 30.9376 16.0832 31.1205C16.2424 31.1782 16.3729 31.1392 16.4746 31.0036C16.5559 30.8952 16.5661 30.7478 16.5051 30.5614C16.4746 30.4699 16.4119 30.4292 16.317 30.4394L16.1747 30.4546C16.0967 30.4648 16.0527 30.4309 16.0425 30.353L15.9968 29.9311C15.973 29.7311 16.0611 29.6295 16.2611 29.6261C19.9854 29.5447 23.1167 28.1875 25.655 25.5544L26.1226 26.205ZM21.1461 29.6108C21.0749 29.5769 21.0038 29.5634 20.9326 29.5702C20.7666 29.5837 20.6666 29.6701 20.6327 29.8294C20.6124 29.9175 20.6225 30.0056 20.6632 30.0937C20.7547 30.2937 20.897 30.3445 21.0902 30.2462L23.6471 28.95C23.7352 28.9059 23.7775 28.8348 23.7742 28.7365L23.764 28.5535C23.7572 28.4112 23.6844 28.3519 23.5454 28.3756C23.2201 28.4298 23.0049 28.5671 22.8998 28.7873C22.8287 28.9398 22.7101 29.0178 22.544 29.0212C22.1814 29.0347 21.8527 29.2058 21.5579 29.5346C21.4392 29.6633 21.302 29.6888 21.1461 29.6108ZM19.6821 30.0581C19.6787 30.0615 19.6753 30.0649 19.672 30.0683C19.5262 30.3089 19.5567 30.4902 19.7635 30.6122C19.9126 30.7037 20.0176 30.6681 20.0786 30.5055C20.1295 30.3665 20.1379 30.2191 20.104 30.0632C20.0668 29.887 19.9736 29.8514 19.8245 29.9565L19.6821 30.0581ZM17.2066 30.4699C17.1185 30.6766 17.1066 30.8308 17.171 30.9325C17.1919 30.9665 17.2221 30.9938 17.258 31.0111C17.294 31.0285 17.3341 31.0351 17.3737 31.0303C17.4134 31.0255 17.4508 31.0094 17.4815 30.9839C17.5122 30.9585 17.535 30.9247 17.5472 30.8867C17.6217 30.6664 17.6014 30.5055 17.4862 30.4038C17.4649 30.3856 17.4396 30.3727 17.4124 30.3661C17.3852 30.3595 17.3568 30.3594 17.3296 30.3659C17.3023 30.3723 17.277 30.3851 17.2556 30.4032C17.2343 30.4212 17.2174 30.4441 17.2066 30.4699ZM18.2181 30.4851C17.9945 30.6681 18.025 30.7817 18.3096 30.8257C18.5028 30.8596 18.6994 30.8308 18.8993 30.7393C18.9364 30.723 18.9682 30.6965 18.9908 30.6629C19.0134 30.6293 19.026 30.5899 19.027 30.5494C19.0281 30.5088 19.0176 30.4689 18.9968 30.4341C18.976 30.3993 18.9457 30.3712 18.9095 30.353C18.6926 30.2445 18.4621 30.2886 18.2181 30.4851Z" fill="#F4DEBA"/>
<path d="M21.5574 29.5344C21.8523 29.2057 22.181 29.0345 22.5436 29.021C22.7096 29.0176 22.8283 28.9397 22.8994 28.7872C23.0045 28.5669 23.2197 28.4296 23.545 28.3754C23.6839 28.3517 23.7568 28.411 23.7636 28.5533L23.7737 28.7363C23.7771 28.8346 23.7348 28.9058 23.6467 28.9498L21.0898 30.2461C20.8966 30.3443 20.7543 30.2935 20.6628 30.0936C20.6221 30.0054 20.6119 29.9173 20.6323 29.8292C20.6662 29.67 20.7661 29.5835 20.9322 29.57C21.0034 29.5632 21.0745 29.5768 21.1457 29.6106C21.3016 29.6886 21.4388 29.6632 21.5574 29.5344Z" fill="#D7AF73"/>
<path d="M19.6816 30.0582L19.8239 29.9565C19.973 29.8515 20.0662 29.887 20.1035 30.0633C20.1374 30.2191 20.1289 30.3666 20.0781 30.5055C20.0171 30.6682 19.912 30.7038 19.7629 30.6123C19.5562 30.4903 19.5257 30.309 19.6714 30.0683C19.6748 30.065 19.6782 30.0616 19.6816 30.0582Z" fill="#C29A5A"/>
<path d="M13.3478 30.5308C13.3302 30.5072 13.32 30.4789 13.3185 30.4495C13.3171 30.42 13.3245 30.3909 13.3399 30.3657C13.3552 30.3405 13.3777 30.3205 13.4045 30.3083C13.4313 30.296 13.4611 30.2921 13.4902 30.297C13.924 30.3613 14.0561 30.4918 13.8867 30.6884C13.8653 30.7145 13.8374 30.7345 13.8061 30.7461C13.7748 30.7577 13.7412 30.7606 13.7088 30.7545C13.5597 30.7273 13.4393 30.6528 13.3478 30.5308Z" fill="#C29A5A"/>
<path d="M17.2063 30.4699C17.2171 30.4441 17.234 30.4213 17.2553 30.4032C17.2767 30.3851 17.302 30.3723 17.3293 30.3659C17.3565 30.3595 17.3849 30.3595 17.4121 30.3661C17.4393 30.3727 17.4646 30.3856 17.4858 30.4038C17.6011 30.5055 17.6214 30.6665 17.5468 30.8867C17.5347 30.9248 17.5119 30.9585 17.4812 30.984C17.4505 31.0094 17.4131 31.0255 17.3734 31.0303C17.3338 31.0351 17.2937 31.0285 17.2577 31.0111C17.2218 30.9938 17.1916 30.9665 17.1707 30.9325C17.1063 30.8308 17.1182 30.6766 17.2063 30.4699Z" fill="#C29A5A"/>
<path d="M18.2179 30.4852C18.4619 30.2886 18.6924 30.2445 18.9093 30.353C18.9455 30.3712 18.9758 30.3993 18.9966 30.4341C19.0174 30.4689 19.0279 30.5089 19.0268 30.5494C19.0258 30.5899 19.0132 30.6293 18.9906 30.6629C18.9679 30.6965 18.9362 30.723 18.8991 30.7393C18.6991 30.8308 18.5026 30.8596 18.3094 30.8257C18.0248 30.7817 17.9943 30.6681 18.2179 30.4852Z" fill="#C29A5A"/>
</g>
</g>
<defs>
<clipPath id="clip0_2107_39648">
<rect width="32" height="32" fill="white" transform="translate(0 0.453125)"/>
</clipPath>
</defs>
</svg>
