<svg width="36" height="37" viewBox="0 0 36 37" fill="none" xmlns="http://www.w3.org/2000/svg">
<g clip-path="url(#clip0_2107_39723)">
<path d="M18 36.4531C27.9411 36.4531 36 28.3943 36 18.4531C36 8.512 27.9411 0.453125 18 0.453125C8.05887 0.453125 0 8.512 0 18.4531C0 28.3943 8.05887 36.4531 18 36.4531Z" fill="#9B9AA9"/>
<path d="M18.1144 19.5124L20.8155 18.5012L21.4873 15.9139L21.4644 15.8497L18.8055 16.8451L20.7213 9.45312H15.2882L12.7829 19.0999L10.6912 19.883L10 22.5502L12.0902 21.7678L10.6136 27.4531H25.073L26 23.9147H16.9735L18.1144 19.5124Z" fill="white"/>
</g>
<defs>
<clipPath id="clip0_2107_39723">
<rect width="36" height="36" fill="white" transform="translate(0 0.453125)"/>
</clipPath>
</defs>
</svg>
