<svg width="20" height="21" viewBox="0 0 20 21" fill="none" xmlns="http://www.w3.org/2000/svg">
<path fill-rule="evenodd" clip-rule="evenodd" d="M13.9553 7.93371L11.5887 10.371L2.33245 1.68244C2.56083 1.63006 2.81884 1.67648 3.05549 1.80948L13.9553 7.93371ZM2.33231 1.68258L11.1884 10.805L2.33866 19.9885C1.90257 19.9451 1.66675 19.5111 1.66675 18.894V2.748C1.66675 2.09265 1.96652 1.76661 2.33231 1.68258ZM11.9957 10.79L14.6662 13.2595L17.8204 11.4813C18.2571 11.2351 18.7145 10.607 17.8204 10.105C17.5932 9.97721 14.6801 8.34088 14.6801 8.34088L11.9957 10.79ZM3.05555 19.8042C2.77906 19.96 2.5387 20.0145 2.33885 19.9885L11.5888 11.1698L13.958 13.6584L3.05555 19.8042Z" fill="#F4F6F8"/>
</svg>
