<svg width="20" height="21" viewBox="0 0 20 21" fill="none" xmlns="http://www.w3.org/2000/svg">
<g clip-path="url(#clip0_2207_45634)">
<path fill-rule="evenodd" clip-rule="evenodd" d="M13.7347 1.48051C13.7833 1.06074 13.3828 0.7313 12.9786 0.854135C12.252 1.07476 11.5129 1.54163 11.022 2.11604C10.552 2.65941 10.1281 3.45977 10.0379 4.29227C9.99539 4.686 10.3536 5.00148 10.742 4.92422C11.5341 4.76684 12.2807 4.26717 12.7795 3.66297C13.2714 3.06757 13.6405 2.29389 13.7347 1.48051ZM17.1503 14.035C17.3984 14.1797 17.5048 14.4818 17.4026 14.7503C17.2133 15.2481 16.8604 16.0515 16.2993 16.8715C15.5306 17.9949 14.7329 19.1143 13.476 19.1374C12.2412 19.1602 11.8441 18.4052 10.4322 18.4052C9.0209 18.4052 8.57969 19.1143 7.41073 19.1602C6.19758 19.2061 5.27382 17.9453 4.49874 16.8259C2.91498 14.5362 1.70463 10.3557 3.32982 7.53385C4.13716 6.13246 5.57999 5.24504 7.14597 5.22228C8.33725 5.19958 9.46158 6.0237 10.1899 6.0237C10.9176 6.0237 12.2839 5.03263 13.7203 5.17816C14.2495 5.20022 15.6199 5.37156 16.6798 6.49323C16.9109 6.73774 16.8856 7.12853 16.6267 7.34331C16.0319 7.83657 15.0856 8.87771 15.1004 10.5168C15.1196 12.5794 16.4476 13.6249 17.1503 14.035Z" fill="#F4F6F8"/>
</g>
<defs>
<clipPath id="clip0_2207_45634">
<rect width="20" height="20" fill="white" transform="translate(0 0.828125)"/>
</clipPath>
</defs>
</svg>
