<svg width="48" height="49" viewBox="0 0 48 49" fill="none" xmlns="http://www.w3.org/2000/svg">
<g clip-path="url(#clip0_2107_39311)">
<mask id="mask0_2107_39311" style="mask-type:alpha" maskUnits="userSpaceOnUse" x="0" y="6" width="48" height="40">
<path d="M44.2009 13.1233C38.068 8.40834 32.1196 12.251 25.4846 10.8923C18.8018 9.52387 16.1392 4.96734 8.5275 7.07062C1.78481 8.93372 -2.30644 16.4035 1.40025 22.6573C2.45653 24.4394 4.25597 25.7839 4.99134 27.7778C6.17756 30.9945 4.37194 33.4641 4.72416 36.6252C6.18778 49.7597 26.2467 44.6722 33.6276 40.5857C45.2029 34.1769 53.0336 19.9141 44.2009 13.1233Z" fill="url(#paint0_linear_2107_39311)" fill-opacity="0.16"/>
</mask>
<g mask="url(#mask0_2107_39311)">
<path d="M44.2009 13.1233C38.068 8.40834 32.1196 12.251 25.4846 10.8923C18.8018 9.52387 16.1392 4.96734 8.5275 7.07062C1.78481 8.93372 -2.30644 16.4035 1.40025 22.6573C2.45653 24.4394 4.25597 25.7839 4.99134 27.7778C6.17756 30.9945 4.37194 33.4641 4.72416 36.6252C6.18778 49.7597 26.2467 44.6722 33.6276 40.5857C45.2029 34.1769 53.0336 19.9141 44.2009 13.1233Z" fill="#FFAB00"/>
<path opacity="0.08" d="M38.5472 8.34774C38.1991 8.34774 37.851 8.21517 37.586 7.95024C37.056 7.42027 37.056 6.55786 37.586 6.0278C38.1159 5.49773 38.9784 5.49773 39.5084 6.0278C40.0384 6.55786 40.0384 7.42017 39.5084 7.95024C39.2435 8.21517 38.8954 8.34774 38.5472 8.34774ZM38.5473 6.56733C38.4392 6.56733 38.3312 6.60839 38.249 6.6907C38.0845 6.85514 38.0845 7.1228 38.249 7.28733C38.4134 7.45177 38.6811 7.45186 38.8456 7.28733C39.01 7.12289 39.01 6.85523 38.8456 6.6907C38.7633 6.60839 38.6553 6.56733 38.5473 6.56733Z" fill="#FFAB00"/>
<path opacity="0.24" d="M40.9053 12.9313C40.5572 12.9314 40.2091 12.7989 39.9441 12.5338C39.6873 12.277 39.5459 11.9357 39.5459 11.5726C39.5459 11.2095 39.6873 10.8682 39.9441 10.6114C40.4739 10.0814 41.3363 10.0813 41.8664 10.6114C42.1232 10.8682 42.2646 11.2095 42.2646 11.5726C42.2646 11.9358 42.1232 12.2771 41.8663 12.5338C41.6016 12.7988 41.2534 12.9313 40.9053 12.9313ZM40.9053 11.1509C40.7973 11.1509 40.6892 11.192 40.607 11.2743C40.5272 11.354 40.4834 11.4599 40.4834 11.5726C40.4834 11.6853 40.5273 11.7912 40.607 11.8709C40.7715 12.0354 41.0391 12.0354 41.2036 11.8709C41.2834 11.7912 41.3271 11.6853 41.3271 11.5726C41.3271 11.4599 41.2833 11.3541 41.2036 11.2743C41.1214 11.192 41.0134 11.1509 40.9053 11.1509Z" fill="#FFAB00"/>
<path opacity="0.08" d="M9.8792 22.8213C9.53111 22.8213 9.18292 22.6887 8.91798 22.4238C8.38802 21.8937 8.38802 21.0313 8.91798 20.5013C9.44795 19.9714 10.3105 19.9714 10.8404 20.5013C11.3704 21.0314 11.3704 21.8937 10.8404 22.4238C10.5755 22.6887 10.2273 22.8213 9.8792 22.8213ZM9.8792 21.0409C9.7712 21.0409 9.66311 21.0819 9.58089 21.1642C9.41636 21.3287 9.41636 21.5963 9.58089 21.7609C9.74533 21.9254 10.0131 21.9253 10.1775 21.7609C10.342 21.5964 10.342 21.3288 10.1775 21.1642C10.0953 21.0819 9.9873 21.0409 9.8792 21.0409Z" fill="#FFAB00"/>
<path opacity="0.48" d="M9.27439 27.0345C9.15439 27.0345 9.03448 26.9887 8.94289 26.8972L8.38376 26.3381L7.82464 26.8972C7.64155 27.0802 7.34483 27.0802 7.16173 26.8972C6.97864 26.7141 6.97864 26.4173 7.16173 26.2343L8.05236 25.3437C8.23545 25.1607 8.53217 25.1607 8.71526 25.3437L9.60589 26.2343C9.78898 26.4174 9.78898 26.7142 9.60589 26.8972C9.51429 26.9886 9.39439 27.0345 9.27439 27.0345Z" fill="#FFAB00"/>
<path opacity="0.24" d="M40.0146 40.6095C39.8946 40.6095 39.7747 40.5638 39.6831 40.4723L39.124 39.9131L38.5649 40.4723C38.3818 40.6553 38.0851 40.6553 37.902 40.4723C37.7189 40.2892 37.7189 39.9924 37.902 39.8094L38.7926 38.9187C38.9757 38.7357 39.2724 38.7357 39.4555 38.9187L40.3461 39.8094C40.5292 39.9925 40.5292 40.2893 40.3461 40.4723C40.2545 40.5637 40.1346 40.6095 40.0146 40.6095Z" fill="#FFAB00"/>
</g>
<path d="M36 24.625C36 31.2525 30.6273 36.625 24 36.625C17.3725 36.625 12 31.2525 12 24.625C12 17.9975 17.3725 12.625 24 12.625C30.6273 12.625 36 17.9975 36 24.625Z" fill="#FFD666"/>
<path d="M27.1609 17.4337C27.0245 16.9064 26.4424 16.1588 24.2371 16.1588C20.8299 16.1588 20.3447 16.6634 19.4379 15.792C18.6729 15.0568 18.2236 18.5951 19.2436 19.7189C18.8132 21.3104 19.1576 22.9045 19.1576 22.9045H28.7441C28.7439 22.9045 29.5484 19.1809 27.1609 17.4337Z" fill="#B76E00"/>
<path d="M20.1252 23.0719C20.1252 23.0719 19.7119 22.3149 18.8854 22.3149C18.0588 22.3149 17.4732 25.9489 20.1252 25.3432V23.0719Z" fill="#FDBAB9"/>
<path opacity="0.32" d="M20.1252 23.0719C20.1252 23.0719 19.7119 22.3149 18.8854 22.3149C18.0588 22.3149 17.4732 25.9489 20.1252 25.3432V23.0719Z" fill="white"/>
<path d="M27.7764 23.0719C27.7764 23.0719 28.1896 22.3149 29.0162 22.3149C29.8429 22.3149 30.4283 25.9489 27.7764 25.3432V23.0719Z" fill="#FDBAB9"/>
<path opacity="0.32" d="M27.7764 23.0719C27.7764 23.0719 28.1896 22.3149 29.0162 22.3149C29.8429 22.3149 30.4283 25.9489 27.7764 25.3432V23.0719Z" fill="white"/>
<path d="M23.9509 18.2024C17.6183 18.2024 18.829 28.5881 23.9509 28.5881C29.0725 28.5881 30.2834 18.2024 23.9509 18.2024Z" fill="#FDBAB9"/>
<path opacity="0.56" d="M23.9509 18.2024C17.6183 18.2024 18.829 28.5881 23.9509 28.5881C29.0725 28.5881 30.2834 18.2024 23.9509 18.2024Z" fill="white"/>
<path d="M21.6696 17.1088C20.4564 17.1933 20.0398 17.2223 19.4368 16.6428C19.0446 16.2658 18.7358 17.0131 18.6652 17.9819C18.5678 16.6716 18.934 15.3087 19.4368 15.7919C20.0399 16.3714 20.4564 16.3425 21.67 16.258C22.2812 16.2155 23.0946 16.1589 24.236 16.1589C26.4415 16.1589 27.0236 16.9063 27.1598 17.4338C28.7596 18.6043 28.9258 20.6607 28.8618 21.8915C28.7966 20.7017 28.4296 19.2136 27.1598 18.2846C27.0236 17.757 26.4415 17.0096 24.236 17.0096C23.0944 17.0096 22.2809 17.0662 21.6696 17.1088Z" fill="#B76E00"/>
<path d="M19.643 22.5561C19.643 17.0294 23.9504 17.6372 23.9504 17.6372C23.9504 17.6372 28.2576 17.0294 28.2576 22.5561C28.2576 22.5561 27.7154 20.2719 26.471 19.6489C26.2052 19.5158 26.0167 19.5984 25.7236 19.7269C25.3777 19.8785 24.8862 20.0939 23.9504 20.0939C23.0145 20.0939 22.523 19.8785 22.1771 19.7269C21.8839 19.5984 21.6954 19.5158 21.4296 19.6489C20.1854 20.2719 19.643 22.5561 19.643 22.5561Z" fill="#B76E00"/>
<path d="M32.665 32.9274C32.3572 32.1732 31.7319 31.5686 30.9242 31.3031L27.0328 30.0245C26.6657 29.9038 26.4163 29.5627 26.4128 29.1761L26.3989 27.6047C25.7485 28.1903 24.9388 28.5532 23.992 28.5616C23.0453 28.5699 22.2294 28.2213 21.5686 27.6474L21.582 29.1637C21.5854 29.5561 21.3346 29.9056 20.9616 30.0281L17.0717 31.3038C16.2659 31.5682 15.6411 32.1701 15.332 32.9217C17.5165 35.2036 20.5928 36.6249 24.0013 36.6249C27.4067 36.6249 30.4807 35.206 32.665 32.9274Z" fill="#FFAB00"/>
<path d="M23.8572 33.4295C25.8525 33.4295 27.5544 32.1771 28.2222 30.4158L27.0315 30.0245C26.6644 29.9038 26.415 29.5625 26.4117 29.1761L26.3978 27.6047C25.7472 28.1903 24.9377 28.5532 23.9908 28.5616C23.044 28.5699 22.2281 28.2213 21.5674 27.6474L21.5808 29.1637C21.5843 29.5561 21.3334 29.9056 20.9604 30.0281L19.5249 30.4989C20.2141 32.2162 21.8934 33.4295 23.8572 33.4295Z" fill="#FDBAB9"/>
<path opacity="0.32" d="M23.8572 33.4295C25.8525 33.4295 27.5544 32.1771 28.2222 30.4158L27.0315 30.0245C26.6644 29.9038 26.415 29.5625 26.4117 29.1761L26.3978 27.6047C25.7472 28.1903 24.9377 28.5532 23.9908 28.5616C23.044 28.5699 22.2281 28.2213 21.5674 27.6474L21.5808 29.1637C21.5843 29.5561 21.3334 29.9056 20.9604 30.0281L19.5249 30.4989C20.2141 32.2162 21.8934 33.4295 23.8572 33.4295Z" fill="white"/>
<path d="M24 13.5625C30.4702 13.5625 35.7437 18.6838 35.9899 25.0937C35.996 24.9381 36 24.7821 36 24.625C36 17.9977 30.6273 12.625 24 12.625C17.3725 12.625 12 17.9977 12 24.625C12 24.7821 12.0038 24.9381 12.0099 25.0937C12.2562 18.6838 17.5296 13.5625 24 13.5625Z" fill="#FFAB00"/>
</g>
<defs>
<linearGradient id="paint0_linear_2107_39311" x1="32.881" y1="51.9261" x2="52.6486" y2="10.3157" gradientUnits="userSpaceOnUse">
<stop/>
<stop offset="1" stop-opacity="0.01"/>
</linearGradient>
<clipPath id="clip0_2107_39311">
<rect width="48" height="48" fill="white" transform="translate(0 0.625)"/>
</clipPath>
</defs>
</svg>
