<svg width="48" height="49" viewBox="0 0 48 49" fill="none" xmlns="http://www.w3.org/2000/svg">
<g clip-path="url(#clip0_2107_39305)">
<mask id="mask0_2107_39305" style="mask-type:alpha" maskUnits="userSpaceOnUse" x="0" y="6" width="48" height="40">
<path d="M44.2009 13.1233C38.068 8.40834 32.1196 12.251 25.4846 10.8923C18.8018 9.52387 16.1392 4.96734 8.5275 7.07062C1.78481 8.93372 -2.30644 16.4035 1.40025 22.6573C2.45653 24.4394 4.25597 25.7839 4.99134 27.7778C6.17756 30.9945 4.37194 33.4641 4.72416 36.6252C6.18778 49.7597 26.2467 44.6722 33.6276 40.5857C45.2029 34.1769 53.0336 19.9141 44.2009 13.1233Z" fill="url(#paint0_linear_2107_39305)" fill-opacity="0.16"/>
</mask>
<g mask="url(#mask0_2107_39305)">
<path d="M44.2009 13.1233C38.068 8.40834 32.1196 12.251 25.4846 10.8923C18.8018 9.52387 16.1392 4.96734 8.5275 7.07062C1.78481 8.93372 -2.30644 16.4035 1.40025 22.6573C2.45653 24.4394 4.25597 25.7839 4.99134 27.7778C6.17756 30.9945 4.37194 33.4641 4.72416 36.6252C6.18778 49.7597 26.2467 44.6722 33.6276 40.5857C45.2029 34.1769 53.0336 19.9141 44.2009 13.1233Z" fill="#FFAB00"/>
<path opacity="0.08" d="M38.5472 8.34774C38.1991 8.34774 37.851 8.21517 37.586 7.95024C37.056 7.42027 37.056 6.55786 37.586 6.0278C38.1159 5.49773 38.9784 5.49773 39.5084 6.0278C40.0384 6.55786 40.0384 7.42017 39.5084 7.95024C39.2435 8.21517 38.8954 8.34774 38.5472 8.34774ZM38.5473 6.56733C38.4392 6.56733 38.3312 6.60839 38.249 6.6907C38.0845 6.85514 38.0845 7.1228 38.249 7.28733C38.4134 7.45177 38.6811 7.45186 38.8456 7.28733C39.01 7.12289 39.01 6.85523 38.8456 6.6907C38.7633 6.60839 38.6553 6.56733 38.5473 6.56733Z" fill="#FFAB00"/>
<path opacity="0.24" d="M40.9053 12.9313C40.5572 12.9314 40.2091 12.7989 39.9441 12.5338C39.6873 12.277 39.5459 11.9357 39.5459 11.5726C39.5459 11.2095 39.6873 10.8682 39.9441 10.6114C40.4739 10.0814 41.3363 10.0813 41.8664 10.6114C42.1232 10.8682 42.2646 11.2095 42.2646 11.5726C42.2646 11.9358 42.1232 12.2771 41.8663 12.5338C41.6016 12.7988 41.2534 12.9313 40.9053 12.9313ZM40.9053 11.1509C40.7973 11.1509 40.6892 11.192 40.607 11.2743C40.5272 11.354 40.4834 11.4599 40.4834 11.5726C40.4834 11.6853 40.5273 11.7912 40.607 11.8709C40.7715 12.0354 41.0391 12.0354 41.2036 11.8709C41.2834 11.7912 41.3271 11.6853 41.3271 11.5726C41.3271 11.4599 41.2833 11.3541 41.2036 11.2743C41.1214 11.192 41.0134 11.1509 40.9053 11.1509Z" fill="#FFAB00"/>
<path opacity="0.08" d="M9.8792 22.8213C9.53111 22.8213 9.18292 22.6887 8.91798 22.4238C8.38802 21.8937 8.38802 21.0313 8.91798 20.5013C9.44795 19.9714 10.3105 19.9714 10.8404 20.5013C11.3704 21.0314 11.3704 21.8937 10.8404 22.4238C10.5755 22.6887 10.2273 22.8213 9.8792 22.8213ZM9.8792 21.0409C9.7712 21.0409 9.66311 21.0819 9.58089 21.1642C9.41636 21.3287 9.41636 21.5963 9.58089 21.7609C9.74533 21.9254 10.0131 21.9253 10.1775 21.7609C10.342 21.5964 10.342 21.3288 10.1775 21.1642C10.0953 21.0819 9.9873 21.0409 9.8792 21.0409Z" fill="#FFAB00"/>
<path opacity="0.48" d="M9.27439 27.0345C9.15439 27.0345 9.03448 26.9887 8.94289 26.8972L8.38376 26.3381L7.82464 26.8972C7.64155 27.0802 7.34483 27.0802 7.16173 26.8972C6.97864 26.7141 6.97864 26.4173 7.16173 26.2343L8.05236 25.3437C8.23545 25.1607 8.53217 25.1607 8.71526 25.3437L9.60589 26.2343C9.78898 26.4174 9.78898 26.7142 9.60589 26.8972C9.51429 26.9886 9.39439 27.0345 9.27439 27.0345Z" fill="#FFAB00"/>
<path opacity="0.24" d="M40.0146 40.6095C39.8946 40.6095 39.7747 40.5638 39.6831 40.4723L39.124 39.9131L38.5649 40.4723C38.3818 40.6553 38.0851 40.6553 37.902 40.4723C37.7189 40.2892 37.7189 39.9924 37.902 39.8094L38.7926 38.9187C38.9757 38.7357 39.2724 38.7357 39.4555 38.9187L40.3461 39.8094C40.5292 39.9925 40.5292 40.2893 40.3461 40.4723C40.2545 40.5637 40.1346 40.6095 40.0146 40.6095Z" fill="#FFAB00"/>
</g>
<path d="M25.9897 34.5194C30.9659 33.3431 34.0464 28.3555 32.8701 23.3793C31.6938 18.4031 26.7062 15.3227 21.73 16.499C16.7538 17.6753 13.6733 22.6629 14.8496 27.6391C16.0259 32.6153 21.0135 35.6957 25.9897 34.5194Z" fill="#FFD666"/>
<path d="M23.8604 16.2568V34.7773C28.9665 34.7773 33.1206 30.6232 33.1206 25.5171C33.1206 20.411 28.9664 16.2568 23.8604 16.2568Z" fill="#FFAB00"/>
<path d="M24.9616 24.6228C24.2486 24.3708 23.4611 24.067 23.0259 23.7257C22.917 23.6403 22.8705 23.4239 22.9128 23.1994C22.935 23.0816 23.0382 22.6882 23.4345 22.5688C24.1319 22.3587 24.6071 22.635 24.7791 22.7634C25.1779 23.0616 25.7426 22.98 26.0406 22.5813C26.3387 22.1825 26.2571 21.6178 25.8584 21.3198C25.6932 21.1962 25.2902 20.932 24.7135 20.7886V20.5467C24.7135 20.049 24.31 19.6454 23.8122 19.6454C23.3145 19.6454 22.9109 20.049 22.9109 20.5467V20.8441C22.0025 21.1193 21.3246 21.8934 21.1414 22.8655C20.972 23.7646 21.2679 24.6377 21.9135 25.1441C22.5521 25.6449 23.4671 26.0063 24.3608 26.3222C25.0658 26.5714 25.0866 27.1113 25.0362 27.4109C24.9522 27.911 24.5314 28.4515 23.8062 28.4563C23.049 28.4613 22.8336 28.4272 22.262 28.0533C21.8454 27.7807 21.2869 27.8975 21.0143 28.3141C20.7419 28.7307 20.8586 29.2893 21.2752 29.5618C21.8968 29.9685 22.3627 30.1458 22.9109 30.2169V30.4873C22.9109 30.985 23.3145 31.3886 23.8122 31.3886C24.31 31.3886 24.7135 30.985 24.7135 30.4873V30.1247C25.1382 29.9955 25.5263 29.7748 25.8608 29.4675C26.3623 29.0067 26.7007 28.3824 26.8139 27.7096C27.0447 26.3365 26.3004 25.096 24.9616 24.6228Z" fill="#B76E00"/>
<path d="M24.9608 24.6229C24.5943 24.4934 24.2083 24.35 23.8604 24.1951V26.1406C24.0264 26.2032 24.1935 26.2637 24.36 26.3225C25.065 26.5717 25.0858 27.1115 25.0354 27.4111C24.9535 27.8982 24.5513 28.4223 23.8604 28.4537V31.3863C24.3352 31.3607 24.7127 30.9687 24.7127 30.4875V30.1249C25.1374 29.9957 25.5255 29.775 25.86 29.4678C26.3615 29.007 26.6999 28.3827 26.8131 27.7099C27.0439 26.3367 26.2996 25.0962 24.9608 24.6229Z" fill="#B76E00"/>
<path d="M23.8604 19.648V22.4951C24.3249 22.4743 24.6441 22.6634 24.7782 22.7636C25.1771 23.0618 25.7418 22.9802 26.0398 22.5814C26.3379 22.1827 26.2563 21.6179 25.8576 21.3199C25.6923 21.1964 25.2894 20.9322 24.7127 20.7888V20.5469C24.7127 20.0656 24.3352 19.6736 23.8604 19.648Z" fill="#B76E00"/>
</g>
<defs>
<linearGradient id="paint0_linear_2107_39305" x1="32.881" y1="51.9261" x2="52.6486" y2="10.3157" gradientUnits="userSpaceOnUse">
<stop/>
<stop offset="1" stop-opacity="0.01"/>
</linearGradient>
<clipPath id="clip0_2107_39305">
<rect width="48" height="48" fill="white" transform="translate(0 0.625)"/>
</clipPath>
</defs>
</svg>
