<svg width="48" height="49" viewBox="0 0 48 49" fill="none" xmlns="http://www.w3.org/2000/svg">
<g clip-path="url(#clip0_2107_39293)">
<mask id="mask0_2107_39293" style="mask-type:alpha" maskUnits="userSpaceOnUse" x="0" y="6" width="48" height="40">
<path d="M44.2009 13.1233C38.068 8.40834 32.1196 12.251 25.4846 10.8923C18.8018 9.52387 16.1392 4.96734 8.5275 7.07062C1.78481 8.93372 -2.30644 16.4035 1.40025 22.6573C2.45653 24.4394 4.25597 25.7839 4.99134 27.7778C6.17756 30.9945 4.37194 33.4641 4.72416 36.6252C6.18778 49.7597 26.2467 44.6722 33.6276 40.5857C45.2029 34.1769 53.0336 19.9141 44.2009 13.1233Z" fill="url(#paint0_linear_2107_39293)" fill-opacity="0.16"/>
</mask>
<g mask="url(#mask0_2107_39293)">
<path d="M44.2009 13.1233C38.068 8.40834 32.1196 12.251 25.4846 10.8923C18.8018 9.52387 16.1392 4.96734 8.5275 7.07062C1.78481 8.93372 -2.30644 16.4035 1.40025 22.6573C2.45653 24.4394 4.25597 25.7839 4.99134 27.7778C6.17756 30.9945 4.37194 33.4641 4.72416 36.6252C6.18778 49.7597 26.2467 44.6722 33.6276 40.5857C45.2029 34.1769 53.0336 19.9141 44.2009 13.1233Z" fill="#FFAB00"/>
<path opacity="0.08" d="M38.5472 8.34774C38.1991 8.34774 37.851 8.21517 37.586 7.95024C37.056 7.42027 37.056 6.55786 37.586 6.0278C38.1159 5.49773 38.9784 5.49773 39.5084 6.0278C40.0384 6.55786 40.0384 7.42017 39.5084 7.95024C39.2435 8.21517 38.8954 8.34774 38.5472 8.34774ZM38.5473 6.56733C38.4392 6.56733 38.3312 6.60839 38.249 6.6907C38.0845 6.85514 38.0845 7.1228 38.249 7.28733C38.4134 7.45177 38.6811 7.45186 38.8456 7.28733C39.01 7.12289 39.01 6.85523 38.8456 6.6907C38.7633 6.60839 38.6553 6.56733 38.5473 6.56733Z" fill="#FFAB00"/>
<path opacity="0.24" d="M40.9053 12.9313C40.5572 12.9314 40.2091 12.7989 39.9441 12.5338C39.6873 12.277 39.5459 11.9357 39.5459 11.5726C39.5459 11.2095 39.6873 10.8682 39.9441 10.6114C40.4739 10.0814 41.3363 10.0813 41.8664 10.6114C42.1232 10.8682 42.2646 11.2095 42.2646 11.5726C42.2646 11.9358 42.1232 12.2771 41.8663 12.5338C41.6016 12.7988 41.2534 12.9313 40.9053 12.9313ZM40.9053 11.1509C40.7973 11.1509 40.6892 11.192 40.607 11.2743C40.5272 11.354 40.4834 11.4599 40.4834 11.5726C40.4834 11.6853 40.5273 11.7912 40.607 11.8709C40.7715 12.0354 41.0391 12.0354 41.2036 11.8709C41.2834 11.7912 41.3271 11.6853 41.3271 11.5726C41.3271 11.4599 41.2833 11.3541 41.2036 11.2743C41.1214 11.192 41.0134 11.1509 40.9053 11.1509Z" fill="#FFAB00"/>
<path opacity="0.08" d="M9.8792 22.8213C9.53111 22.8213 9.18292 22.6887 8.91798 22.4238C8.38802 21.8937 8.38802 21.0313 8.91798 20.5013C9.44795 19.9714 10.3105 19.9714 10.8404 20.5013C11.3704 21.0314 11.3704 21.8937 10.8404 22.4238C10.5755 22.6887 10.2273 22.8213 9.8792 22.8213ZM9.8792 21.0409C9.7712 21.0409 9.66311 21.0819 9.58089 21.1642C9.41636 21.3287 9.41636 21.5963 9.58089 21.7609C9.74533 21.9254 10.0131 21.9253 10.1775 21.7609C10.342 21.5964 10.342 21.3288 10.1775 21.1642C10.0953 21.0819 9.9873 21.0409 9.8792 21.0409Z" fill="#FFAB00"/>
<path opacity="0.48" d="M9.27439 27.0345C9.15439 27.0345 9.03448 26.9887 8.94289 26.8972L8.38376 26.3381L7.82464 26.8972C7.64155 27.0802 7.34483 27.0802 7.16173 26.8972C6.97864 26.7141 6.97864 26.4173 7.16173 26.2343L8.05236 25.3437C8.23545 25.1607 8.53217 25.1607 8.71526 25.3437L9.60589 26.2343C9.78898 26.4174 9.78898 26.7142 9.60589 26.8972C9.51429 26.9886 9.39439 27.0345 9.27439 27.0345Z" fill="#FFAB00"/>
<path opacity="0.24" d="M40.0146 40.6095C39.8946 40.6095 39.7747 40.5638 39.6831 40.4723L39.124 39.9131L38.5649 40.4723C38.3818 40.6553 38.0851 40.6553 37.902 40.4723C37.7189 40.2892 37.7189 39.9924 37.902 39.8094L38.7926 38.9187C38.9757 38.7357 39.2724 38.7357 39.4555 38.9187L40.3461 39.8094C40.5292 39.9925 40.5292 40.2893 40.3461 40.4723C40.2545 40.5637 40.1346 40.6095 40.0146 40.6095Z" fill="#FFAB00"/>
</g>
<path d="M25.9897 34.5194C30.9659 33.3431 34.0464 28.3555 32.8701 23.3793C31.6938 18.4031 26.7062 15.3227 21.73 16.499C16.7538 17.6753 13.6733 22.6629 14.8496 27.6391C16.0259 32.6153 21.0135 35.6957 25.9897 34.5194Z" fill="#FFD666"/>
<path d="M23.8604 16.2568V34.7773C28.9665 34.7773 33.1206 30.6232 33.1206 25.5171C33.1206 20.411 28.9664 16.2568 23.8604 16.2568Z" fill="#FFAB00"/>
<path d="M29 29.225C29 29.4459 28.8209 29.625 28.6 29.625H26.5429C26.3219 29.625 26.1429 29.4459 26.1429 29.225V22.025C26.1429 21.8041 26.3219 21.625 26.5429 21.625H28.6C28.8209 21.625 29 21.8041 29 22.025V29.225ZM25.4286 29.225C25.4286 29.4459 25.2495 29.625 25.0286 29.625H22.9714C22.7505 29.625 22.5714 29.4459 22.5714 29.225V24.4865C22.5714 24.2656 22.7505 24.0865 22.9714 24.0865H25.0286C25.2495 24.0865 25.4286 24.2656 25.4286 24.4865V29.225ZM21.8571 29.225C21.8571 29.4459 21.6781 29.625 21.4571 29.625H19.4C19.1791 29.625 19 29.4459 19 29.225V26.3327C19 26.1118 19.1791 25.9327 19.4 25.9327H21.4571C21.6781 25.9327 21.8571 26.1118 21.8571 26.3327V29.225Z" fill="#B76E00"/>
</g>
<defs>
<linearGradient id="paint0_linear_2107_39293" x1="32.881" y1="51.9261" x2="52.6486" y2="10.3157" gradientUnits="userSpaceOnUse">
<stop/>
<stop offset="1" stop-opacity="0.01"/>
</linearGradient>
<clipPath id="clip0_2107_39293">
<rect width="48" height="48" fill="white" transform="translate(0 0.625)"/>
</clipPath>
</defs>
</svg>
