<svg width="416" height="312" viewBox="0 0 416 312" fill="none" xmlns="http://www.w3.org/2000/svg">
<g opacity="0.2">
<mask id="mask0_2102_33970" style="mask-type:alpha" maskUnits="userSpaceOnUse" x="0" y="0" width="416" height="313"> <path opacity="0.48" fill-rule="evenodd" clip-rule="evenodd" d="M0 172.829C0 208.873 12.9527 241.719 34.2672 266.543C58.7197 295.029 94.1782 312.94 133.703 313C150.977 313.026 167.494 309.62 182.665 303.404C190.51 300.189 199.29 300.558 206.887 304.367C215.799 308.83 225.779 311.332 236.317 311.332C240.67 311.332 244.933 310.902 249.056 310.086C260.827 307.764 271.538 302.27 280.334 294.488C285.862 289.595 292.942 287.136 300.178 287.145H300.301C324.212 287.145 346.422 279.553 364.862 266.543C381.347 254.927 394.808 238.984 403.778 220.266C411.598 203.955 416 185.529 416 166.027C416 99.1403 364.196 44.9097 300.301 44.9097C293.788 44.9097 287.406 45.4857 281.18 46.5603C264.695 18.6236 235.175 0 201.499 0C187.281 0 173.802 3.31927 161.736 9.26934C150.262 14.9095 140.06 22.924 131.715 32.6911C103.377 33.1641 77.1749 42.8549 55.7292 59.0278C21.9713 84.4711 0 125.967 0 172.829Z" fill="url(#paint0_linear_2102_33970)"/>
</mask>
<g mask="url(#mask0_2102_33970)">
<rect width="416" height="313" fill="#FFAB00"/>
</g>
</g>
<path opacity="0.24" fill-rule="evenodd" clip-rule="evenodd" d="M125.74 84.6919L126.443 86.281L126.427 86.2885L126.373 86.3126C126.325 86.3341 126.254 86.3667 126.159 86.4101C125.969 86.4969 125.687 86.6272 125.319 86.8L124.584 85.2255C124.957 85.0501 125.244 84.9172 125.439 84.828C125.537 84.7833 125.611 84.7496 125.662 84.7269L125.719 84.7011L125.74 84.6919ZM119.872 87.5424C120.736 87.1016 121.519 86.7099 122.212 86.3688L122.976 87.9297C122.29 88.2674 121.514 88.6554 120.657 89.0924L119.872 87.5424ZM115.23 89.9844C116.036 89.5476 116.807 89.1363 117.539 88.7512L118.344 90.2911C117.618 90.6731 116.853 91.0811 116.053 91.5145L115.23 89.9844ZM110.659 92.5293C111.44 92.0826 112.201 91.6537 112.938 91.2429L113.78 92.7633C113.047 93.1709 112.293 93.5966 111.518 94.0399L110.659 92.5293ZM106.125 95.1936C106.893 94.7302 107.648 94.2808 108.388 93.8458L109.264 95.3464C108.53 95.778 107.78 96.2239 107.018 96.6837L106.125 95.1936ZM101.689 97.9416C102.436 97.4666 103.175 97.0031 103.904 96.5514L104.815 98.0309C104.091 98.4791 103.358 98.9388 102.618 99.4101L101.689 97.9416ZM97.2997 100.812C98.0315 100.32 98.7586 99.8382 99.4797 99.3668L100.426 100.824C99.7109 101.291 98.9899 101.769 98.2644 102.256L97.2997 100.812ZM92.9855 103.794C93.7057 103.282 94.4237 102.779 95.1385 102.285L96.1219 103.717C95.4134 104.206 94.7018 104.705 93.9882 105.213L92.9855 103.794ZM88.7628 106.889C89.4642 106.36 90.1656 105.838 90.8661 105.325L91.8885 106.729C91.1947 107.237 90.5001 107.754 89.8056 108.278L88.7628 106.889ZM84.6277 110.115C85.3097 109.565 85.9936 109.023 86.6785 108.489L87.7424 109.862C87.0645 110.391 86.3878 110.927 85.7132 111.471L84.6277 110.115ZM80.5966 113.477C81.2597 112.904 81.9266 112.339 82.5963 111.78L83.7043 113.117C83.0422 113.669 82.3831 114.229 81.7278 114.795L80.5966 113.477ZM76.6874 116.985C77.3284 116.387 77.9749 115.796 78.6259 115.212L79.7813 116.509C79.1385 117.085 78.5003 117.669 77.8678 118.259L76.6874 116.985ZM72.9204 120.65C73.535 120.026 74.1569 119.408 74.785 118.797L75.9914 120.046C75.3721 120.648 74.7592 121.257 74.1537 121.872L72.9204 120.65ZM69.3183 124.486C69.9025 123.832 70.4957 123.185 71.0971 122.545L72.3585 123.738C71.7665 124.368 71.183 125.004 70.6087 125.647L69.3183 124.486ZM65.913 128.505C66.4615 127.82 67.021 127.141 67.5908 126.469L68.9111 127.596C68.3516 128.256 67.8024 128.922 67.2645 129.594L65.913 128.505ZM62.7439 132.72C63.2488 132.002 63.7669 131.29 64.2974 130.585L65.6808 131.633C65.1612 132.324 64.654 133.02 64.1602 133.722L62.7439 132.72ZM59.8589 137.14C60.311 136.389 60.7787 135.644 61.261 134.906L62.7108 135.859C62.2399 136.58 61.7835 137.307 61.3427 138.039L59.8589 137.14ZM57.3111 141.783C57.7017 140.995 58.1106 140.213 58.5365 139.438L60.0546 140.277C59.6401 141.032 59.2426 141.792 58.8632 142.558L57.3111 141.783ZM55.1747 146.638C55.4917 145.814 55.8297 144.995 56.1876 144.183L57.7729 144.886C57.4259 145.674 57.0986 146.466 56.7919 147.264L55.1747 146.638ZM53.5258 151.688C53.7556 150.832 54.0091 149.982 54.2851 149.138L55.932 149.681C55.6655 150.495 55.421 151.315 55.1995 152.14L53.5258 151.688ZM52.4399 156.899C52.5703 156.019 52.7267 155.144 52.9081 154.275L54.6046 154.632C54.4301 155.468 54.2797 156.309 54.1544 157.154L52.4399 156.899ZM52.0346 160.878C52.0593 160.432 52.091 159.987 52.1294 159.544L53.8562 159.694C53.8193 160.12 53.789 160.547 53.7652 160.975C53.7413 161.406 53.7309 161.831 53.7338 162.251L52.0005 162.263C51.9974 161.807 52.0087 161.345 52.0346 160.878ZM52.7474 167.615C52.5021 166.747 52.3156 165.856 52.1903 164.943L53.9074 164.706C54.0218 165.539 54.1918 166.351 54.415 167.141L52.7474 167.615ZM54.9126 172.57C54.4411 171.79 54.0229 170.988 53.6608 170.161L55.2476 169.462C55.5781 170.216 55.9611 170.951 56.3946 171.668L54.9126 172.57ZM58.1855 176.804C57.5596 176.149 56.9756 175.475 56.4361 174.781L57.8031 173.712C58.3042 174.357 58.8493 174.986 59.4367 175.601L58.1855 176.804ZM62.1741 180.323C61.4634 179.787 60.7843 179.236 60.1384 178.67L61.2788 177.361C61.8909 177.897 62.537 178.421 63.2161 178.934L62.1741 180.323ZM66.585 183.246C65.8145 182.794 65.0689 182.332 64.3494 181.857L65.302 180.404C65.9942 180.861 66.7136 181.307 67.4591 181.744L66.585 183.246ZM71.2405 185.7C70.4358 185.317 69.6508 184.924 68.8865 184.522L69.6913 182.982C70.4342 183.373 71.1988 183.755 71.9841 184.13L71.2405 185.7ZM76.0431 187.794C75.2199 187.465 74.4124 187.128 73.6215 186.784L74.3113 185.189C75.0855 185.526 75.877 185.856 76.685 186.179L76.0431 187.794ZM331.586 185.539C331.797 185.627 332.104 185.759 332.494 185.936L331.777 187.519C331.405 187.35 331.115 187.226 330.921 187.144C330.824 187.104 330.75 187.074 330.702 187.055L330.648 187.034L330.636 187.029L330.634 187.028C330.634 187.028 330.634 187.028 330.943 186.216C331.252 185.403 331.252 185.403 331.252 185.403L331.253 185.404L331.254 185.404L331.26 185.406L331.277 185.413C331.293 185.419 331.314 185.428 331.343 185.439C331.399 185.462 331.481 185.495 331.586 185.539ZM80.941 189.608C80.1086 189.322 79.2889 189.03 78.4825 188.732L79.0819 187.1C79.8751 187.394 80.6822 187.681 81.5025 187.963L80.941 189.608ZM334.887 187.117C335.586 187.486 336.367 187.919 337.211 188.418L336.331 189.916C335.512 189.432 334.756 189.013 334.08 188.656L334.887 187.117ZM85.9062 191.201C85.0698 190.95 84.2437 190.694 83.4285 190.433L83.9558 188.776C84.7604 189.034 85.5764 189.287 86.4031 189.535L85.9062 191.201ZM339.463 189.819C340.166 190.279 340.898 190.779 341.648 191.318L340.639 192.732C339.91 192.208 339.2 191.723 338.516 191.276L339.463 189.819ZM90.9221 192.618C90.0844 192.395 89.2551 192.168 88.4347 191.937L88.9037 190.263C89.7155 190.491 90.5365 190.716 91.3663 190.937L90.9221 192.618ZM95.9772 193.89C95.1309 193.688 94.2915 193.483 93.4596 193.274L93.881 191.587C94.7058 191.794 95.5383 191.998 96.378 192.198L95.9772 193.89ZM101.062 195.044C100.206 194.859 99.3551 194.67 98.5106 194.479L98.8926 192.783C99.7312 192.973 100.576 193.16 101.427 193.344L101.062 195.044ZM343.779 192.923C344.451 193.454 345.134 194.016 345.82 194.609L344.689 195.927C344.022 195.35 343.36 194.805 342.707 194.29L343.779 192.923ZM106.152 196.094C105.294 195.925 104.44 195.753 103.592 195.578L103.941 193.874C104.785 194.048 105.633 194.22 106.487 194.388L106.152 196.094ZM111.249 197.061C110.394 196.905 109.544 196.747 108.697 196.587L109.019 194.878C109.861 195.038 110.708 195.195 111.559 195.35L111.249 197.061ZM116.366 197.961C115.513 197.816 114.664 197.67 113.817 197.521L114.116 195.808C114.959 195.956 115.806 196.102 116.655 196.247L116.366 197.961ZM347.792 196.396C348.423 196.995 349.054 197.621 349.682 198.275L348.432 199.481C347.825 198.847 347.213 198.24 346.601 197.659L347.792 196.396ZM121.494 198.805C120.638 198.668 119.783 198.53 118.93 198.389L119.21 196.673C120.06 196.813 120.912 196.951 121.767 197.087L121.494 198.805ZM126.624 199.601C125.767 199.471 124.91 199.34 124.055 199.207L124.32 197.489C125.173 197.621 126.027 197.752 126.883 197.881L126.624 199.601ZM131.756 200.36C130.9 200.236 130.044 200.111 129.189 199.984L129.442 198.264C130.295 198.39 131.149 198.515 132.003 198.639L131.756 200.36ZM136.894 201.091C136.037 200.971 135.181 200.85 134.324 200.728L134.568 199.007C135.423 199.128 136.278 199.249 137.133 199.369L136.894 201.091ZM142.03 201.801C141.175 201.684 140.318 201.566 139.461 201.448L139.698 199.725C140.554 199.844 141.41 199.961 142.265 200.078L142.03 201.801ZM351.473 200.237C352.046 200.895 352.612 201.579 353.169 202.288L351.807 203.364C351.269 202.679 350.721 202.017 350.167 201.38L351.473 200.237ZM147.165 202.5C146.312 202.384 145.458 202.269 144.602 202.152L144.835 200.429C145.69 200.545 146.544 200.661 147.397 200.777L147.165 202.5ZM152.308 203.196C151.455 203.08 150.598 202.964 149.74 202.848L149.971 201.125C150.83 201.241 151.686 201.357 152.54 201.473L152.308 203.196ZM157.446 203.896C156.59 203.779 155.729 203.661 154.866 203.543L155.099 201.82C155.963 201.938 156.824 202.056 157.682 202.174L157.446 203.896ZM162.572 204.61C161.721 204.49 160.865 204.37 160.005 204.25L160.243 202.528C161.104 202.648 161.961 202.768 162.814 202.888L162.572 204.61ZM167.682 205.347C166.841 205.223 165.994 205.1 165.142 204.977L165.389 203.256C166.242 203.379 167.091 203.502 167.934 203.627L167.682 205.347ZM172.814 206.125C171.972 205.994 171.123 205.863 170.267 205.733L170.526 204.014C171.384 204.144 172.236 204.275 173.081 204.407L172.814 206.125ZM354.761 204.424C355.267 205.14 355.761 205.879 356.242 206.641L354.778 207.572C354.313 206.835 353.835 206.121 353.347 205.429L354.761 204.424ZM177.931 206.955C177.087 206.813 176.234 206.672 175.373 206.533L175.649 204.816C176.514 204.956 177.371 205.097 178.219 205.24L177.931 206.955ZM183.028 207.855C182.182 207.698 181.326 207.543 180.459 207.391L180.759 205.678C181.63 205.832 182.492 205.987 183.343 206.145L183.028 207.855ZM188.098 208.849C187.256 208.674 186.4 208.501 185.532 208.331L185.864 206.625C186.738 206.796 187.601 206.969 188.45 207.146L188.098 208.849ZM193.134 209.971C192.303 209.772 191.456 209.577 190.593 209.385L190.968 207.687C191.84 207.881 192.696 208.079 193.537 208.28L193.134 209.971ZM198.117 211.272C197.301 211.039 196.462 210.811 195.602 210.587L196.037 208.904C196.909 209.131 197.761 209.363 198.591 209.6L198.117 211.272ZM357.606 208.935C358.035 209.701 358.449 210.488 358.846 211.297L357.292 212.066C356.908 211.285 356.508 210.525 356.094 209.786L357.606 208.935ZM203.004 212.827C202.208 212.543 201.383 212.267 200.527 211.996L201.049 210.338C201.922 210.614 202.768 210.897 203.584 211.189L203.004 212.827ZM207.686 214.752C206.958 214.403 206.187 214.063 205.376 213.732L206.03 212.121C206.869 212.464 207.671 212.818 208.434 213.184L207.686 214.752ZM359.959 213.723C360.303 214.531 360.631 215.358 360.94 216.205L359.312 216.803C359.014 215.985 358.698 215.187 358.365 214.408L359.959 213.723ZM210.963 216.577C210.637 216.363 210.296 216.152 209.941 215.944L210.815 214.442C211.194 214.664 211.559 214.89 211.911 215.121C212.246 215.341 212.595 215.562 212.957 215.785L212.051 217.267C211.676 217.036 211.313 216.806 210.963 216.577ZM216.747 219.877C215.928 219.46 215.145 219.045 214.399 218.633L215.235 217.11C215.962 217.511 216.728 217.917 217.531 218.326L216.747 219.877ZM361.787 218.734C362.044 219.572 362.282 220.428 362.5 221.303L360.819 221.726C360.608 220.88 360.378 220.053 360.13 219.244L361.787 218.734ZM221.59 222.181C220.743 221.801 219.921 221.423 219.127 221.046L219.869 219.474C220.651 219.845 221.46 220.218 222.297 220.593L221.59 222.181ZM226.464 224.257C225.618 223.913 224.79 223.569 223.982 223.225L224.66 221.624C225.458 221.964 226.277 222.305 227.116 222.646L226.464 224.257ZM231.407 226.187C230.558 225.868 229.723 225.549 228.905 225.229L229.533 223.609C230.345 223.926 231.172 224.242 232.014 224.559L231.407 226.187ZM363.08 223.903C363.249 224.762 363.398 225.636 363.528 226.528L361.813 226.779C361.687 225.916 361.542 225.069 361.379 224.239L363.08 223.903ZM236.397 227.997C235.543 227.698 234.701 227.398 233.872 227.097L234.461 225.462C235.285 225.76 236.121 226.058 236.969 226.355L236.397 227.997ZM241.417 229.702C240.56 229.42 239.713 229.136 238.876 228.852L239.432 227.205C240.264 227.488 241.106 227.769 241.957 228.05L241.417 229.702ZM246.45 231.311C245.597 231.046 244.751 230.78 243.913 230.512L244.439 228.855C245.273 229.121 246.114 229.387 246.963 229.65L246.45 231.311ZM363.848 229.171C363.89 229.614 363.928 230.06 363.961 230.511C363.998 231.01 364.007 231.497 363.989 231.974L362.257 231.909C362.273 231.499 362.265 231.076 362.233 230.638C362.201 230.201 362.164 229.768 362.122 229.339L363.848 229.171ZM251.514 232.841C250.663 232.591 249.817 232.339 248.978 232.086L249.478 230.421C250.313 230.673 251.154 230.924 252.001 231.173L251.514 232.841ZM256.605 234.297C255.755 234.061 254.909 233.822 254.069 233.582L254.544 231.91C255.38 232.149 256.222 232.386 257.068 232.621L256.605 234.297ZM261.721 235.682C260.867 235.457 260.016 235.23 259.17 235.001L259.622 233.322C260.464 233.55 261.31 233.776 262.161 234L261.721 235.682ZM363.537 234.78C363.261 235.708 362.864 236.576 362.354 237.384L360.889 236.455C361.316 235.778 361.646 235.055 361.876 234.282L363.537 234.78ZM266.856 236.997C265.995 236.783 265.138 236.566 264.283 236.347L264.712 234.662C265.563 234.88 266.416 235.096 267.273 235.309L266.856 236.997ZM272.001 238.241C271.139 238.039 270.279 237.834 269.421 237.626L269.827 235.936C270.681 236.143 271.538 236.347 272.396 236.548L272.001 238.241ZM277.161 239.417C276.299 239.227 275.438 239.033 274.578 238.838L274.962 237.142C275.818 237.337 276.675 237.529 277.533 237.719L277.161 239.417ZM282.341 240.523C281.477 240.345 280.613 240.163 279.75 239.979L280.111 238.278C280.97 238.462 281.83 238.643 282.69 238.82L282.341 240.523ZM360.552 239.578C359.898 240.207 359.161 240.784 358.35 241.314L357.405 239.856C358.135 239.379 358.785 238.868 359.352 238.323L360.552 239.578ZM287.535 241.558C286.668 241.391 285.801 241.222 284.934 241.049L285.271 239.344C286.134 239.515 286.998 239.684 287.86 239.85L287.535 241.558ZM292.738 242.515C291.872 242.363 291.005 242.206 290.137 242.047L290.45 240.336C291.314 240.495 292.177 240.651 293.038 240.803L292.738 242.515ZM355.918 242.661C355.129 243.032 354.291 243.373 353.407 243.685L352.832 242.045C353.666 241.75 354.45 241.431 355.181 241.087L355.918 242.661ZM297.962 243.395C297.095 243.256 296.226 243.113 295.356 242.967L295.642 241.252C296.509 241.397 297.373 241.539 298.235 241.677L297.962 243.395ZM303.206 244.189C302.336 244.065 301.461 243.936 300.585 243.803L300.843 242.084C301.715 242.216 302.584 242.344 303.45 242.467L303.206 244.189ZM350.84 244.478C349.992 244.706 349.11 244.913 348.196 245.1L347.85 243.396C348.732 243.215 349.579 243.016 350.391 242.798L350.84 244.478ZM308.463 244.888C307.586 244.78 306.705 244.667 305.821 244.549L306.049 242.825C306.928 242.943 307.804 243.055 308.675 243.162L308.463 244.888ZM313.73 245.483C312.852 245.393 311.968 245.298 311.079 245.198L311.273 243.47C312.156 243.569 313.033 243.664 313.905 243.753L313.73 245.483ZM345.561 245.57C344.704 245.703 343.823 245.82 342.92 245.923L342.725 244.195C343.606 244.095 344.464 243.98 345.297 243.852L345.561 245.57ZM319.005 245.958C318.131 245.89 317.251 245.816 316.363 245.736L316.519 244.004C317.399 244.084 318.273 244.157 319.139 244.225L319.005 245.958ZM324.291 246.297C323.422 246.254 322.544 246.204 321.659 246.147L321.77 244.412C322.647 244.468 323.516 244.518 324.376 244.561L324.291 246.297ZM340.231 246.182C339.372 246.25 338.496 246.307 337.604 246.352L337.516 244.615C338.393 244.571 339.253 244.515 340.094 244.448L340.231 246.182ZM329.589 246.475C328.725 246.461 327.85 246.439 326.965 246.409L327.023 244.671C327.898 244.701 328.763 244.722 329.617 244.736L329.589 246.475ZM334.903 246.454C334.042 246.476 333.168 246.489 332.281 246.492L332.275 244.753C333.15 244.75 334.011 244.738 334.859 244.716L334.903 246.454Z" fill="#B76E00"/>
<path d="M72.6298 106.568L114.479 237.836C115.172 239.955 116.557 241.778 118.411 243.01C120.265 244.241 122.478 244.809 124.694 244.622L179.576 239.962L307.854 228.969C309.144 228.869 310.4 228.514 311.553 227.925C312.705 227.336 313.73 226.524 314.568 225.535C315.406 224.548 316.042 223.403 316.438 222.167C316.833 220.932 316.981 219.63 316.874 218.337C316.782 217.409 316.569 216.496 316.242 215.623L305.982 188.478L287.425 138.713L273.039 100.257C272.333 98.3764 271.072 96.7558 269.424 95.6125C267.777 94.4683 265.821 93.8562 263.817 93.8562H81.9873C80.6963 93.8562 79.4179 94.1109 78.2251 94.6065C77.0324 95.1021 75.9486 95.829 75.0357 96.7445C74.1228 97.66 73.3986 98.7477 72.9046 99.9441C72.4105 101.14 72.1562 102.423 72.1562 103.718C72.1697 104.687 72.3293 105.648 72.6298 106.568Z" fill="white"/>
<path d="M72.6298 106.568L114.479 237.836C115.172 239.955 116.557 241.778 118.411 243.01C120.265 244.241 122.478 244.809 124.694 244.622L179.576 239.962L307.854 228.969C309.144 228.869 310.4 228.514 311.553 227.925C312.705 227.336 313.73 226.524 314.568 225.535C315.406 224.548 316.042 223.403 316.438 222.167C316.833 220.932 316.981 219.63 316.874 218.337C316.782 217.409 316.569 216.496 316.242 215.623L305.982 188.478L287.425 138.713L273.039 100.257C272.333 98.3764 271.072 96.7558 269.424 95.6125C267.777 94.4683 265.821 93.8562 263.817 93.8562H81.9873C80.6963 93.8562 79.4179 94.1109 78.2251 94.6065C77.0324 95.1021 75.9486 95.829 75.0357 96.7445C74.1228 97.66 73.3986 98.7477 72.9046 99.9441C72.4105 101.14 72.1562 102.423 72.1562 103.718C72.1697 104.687 72.3293 105.648 72.6298 106.568Z" fill="white"/>
<path d="M178.911 240.019L124.694 244.622C122.478 244.809 120.265 244.241 118.411 243.01C116.557 241.778 115.172 239.955 114.479 237.836L72.6298 106.568C72.3293 105.648 72.1697 104.687 72.1562 103.718C72.1562 102.423 72.4105 101.14 72.9046 99.9441C73.3986 98.7477 74.1228 97.66 75.0357 96.7445C75.9486 95.829 77.0324 95.1021 78.2251 94.6065C79.4179 94.1109 80.6963 93.8562 81.9873 93.8562H131.779L178.911 240.019Z" fill="url(#paint1_linear_2102_33970)"/>
<path d="M228.574 166.256C230.839 166.115 232.36 163.866 231.654 161.702L224.302 139.188C223.816 137.701 222.399 136.722 220.841 136.797L167.436 139.372C165.126 139.483 163.57 141.79 164.327 143.983L172.342 167.212C172.85 168.688 174.279 169.642 175.833 169.545L228.574 166.256Z" fill="#F4F6F8"/>
<path d="M243.308 207.989C245.572 207.848 247.093 205.599 246.387 203.436L239.035 180.921C238.549 179.435 237.133 178.456 235.574 178.53L182.169 181.105C179.859 181.216 178.303 183.524 179.06 185.716L187.075 208.945C187.583 210.421 189.012 211.375 190.566 211.278L243.308 207.989Z" fill="#C4CDD5"/>
<g opacity="0.4" filter="url(#filter0_f_2102_33970)">
<path d="M250.356 116.974L264.177 162.961C264.381 163.702 264.824 164.354 265.436 164.817C266.047 165.279 266.794 165.525 267.56 165.518L301.845 164.525C303.034 164.491 303.835 163.293 303.418 162.177L286.084 115.749C285.844 115.105 285.247 114.664 284.563 114.623L253.445 112.789C252.933 112.767 252.424 112.872 251.962 113.093C251.499 113.315 251.099 113.646 250.794 114.059C250.488 114.472 250.289 114.954 250.213 115.462C250.137 115.97 250.186 116.49 250.356 116.974Z" fill="#919EAB"/>
<path d="M250.831 116.819L250.835 116.83L264.656 162.817L264.66 162.829L264.66 162.829C264.834 163.463 265.213 164.022 265.737 164.418L265.738 164.418C266.259 164.813 266.896 165.023 267.551 165.018L301.83 164.025L301.83 164.025C302.674 164.001 303.248 163.149 302.95 162.352L302.95 162.352L285.616 115.924L285.616 115.923C285.445 115.465 285.02 115.151 284.534 115.122C284.534 115.122 284.533 115.122 284.533 115.122L253.419 113.289C252.991 113.271 252.565 113.359 252.178 113.544L252.178 113.544C251.789 113.731 251.452 114.009 251.196 114.357C250.939 114.704 250.771 115.109 250.707 115.536L250.831 116.819ZM250.831 116.819L250.828 116.808M250.831 116.819L250.828 116.808M250.828 116.808C250.685 116.401 250.643 115.964 250.707 115.536L250.828 116.808Z" stroke="#919EAB"/>
</g>
<path d="M317.15 151.652L302.854 111.048C302.635 110.396 302.23 109.823 301.689 109.401C301.147 108.978 300.495 108.725 299.811 108.672L239.562 105.098C239.049 105.083 238.539 105.191 238.077 105.416C237.615 105.64 237.215 105.973 236.909 106.386C236.603 106.8 236.402 107.28 236.322 107.789C236.242 108.298 236.286 108.818 236.45 109.305L250.272 155.316C250.478 156.057 250.92 156.71 251.531 157.175C252.141 157.641 252.887 157.893 253.654 157.895L314.399 156.062C314.906 156.033 315.399 155.882 315.835 155.622C316.273 155.362 316.641 155.002 316.911 154.57C317.18 154.138 317.343 153.648 317.384 153.14C317.426 152.632 317.345 152.122 317.15 151.652Z" fill="white"/>
<path d="M287.071 145.176C287.485 146.251 287.693 146.79 288.136 147.094C288.579 147.399 289.153 147.399 290.303 147.399H290.581C292.876 147.399 294.023 147.399 294.54 146.643C295.056 145.887 294.642 144.813 293.814 142.666L288.244 128.223C287.829 127.146 287.621 126.609 287.178 126.304C286.735 126 286.161 126 285.011 126H284.733C282.438 126 281.291 126 280.774 126.756C280.258 127.511 280.672 128.585 281.5 130.732L287.071 145.176Z" fill="#B76E00"/>
<g opacity="0.48">
<path d="M296.565 145.17C296.979 146.249 297.187 146.788 297.629 147.093C298.073 147.398 298.649 147.398 299.8 147.398H300.073C302.368 147.398 303.516 147.398 304.032 146.643C304.549 145.886 304.135 144.813 303.305 142.666L301.931 139.102C301.516 138.027 301.308 137.489 300.866 137.185C300.423 136.88 299.847 136.88 298.698 136.88H298.434C296.142 136.88 294.996 136.88 294.48 137.634C293.963 138.389 294.375 139.462 295.198 141.607L296.565 145.17Z" fill="url(#paint2_linear_2102_33970)"/>
<path d="M277.556 145.172C277.971 146.25 278.178 146.789 278.621 147.094C279.064 147.399 279.64 147.399 280.792 147.399H281.065C283.36 147.399 284.508 147.399 285.024 146.643C285.54 145.886 285.126 144.813 284.297 142.665L281.953 136.591C281.538 135.516 281.331 134.978 280.888 134.674C280.445 134.37 279.87 134.37 278.72 134.37H278.458C276.165 134.37 275.02 134.37 274.503 135.124C273.987 135.879 274.399 136.952 275.223 139.098L277.556 145.172Z" fill="url(#paint3_linear_2102_33970)"/>
<path d="M268.062 145.176C268.477 146.252 268.684 146.79 269.127 147.094C269.57 147.399 270.146 147.399 271.296 147.399H271.573C273.868 147.399 275.015 147.399 275.532 146.643C276.049 145.887 275.634 144.814 274.806 142.666L266.62 121.437C266.205 120.361 265.998 119.823 265.555 119.518C265.112 119.214 264.537 119.214 263.387 119.214H263.109C260.814 119.214 259.667 119.214 259.15 119.969C258.634 120.726 259.048 121.799 259.876 123.946L268.062 145.176Z" fill="url(#paint4_linear_2102_33970)"/>
<path d="M258.547 145.174C258.962 146.252 259.169 146.79 259.612 147.094C260.055 147.399 260.63 147.399 261.781 147.399H262.06C264.354 147.399 265.5 147.399 266.017 146.644C266.533 145.888 266.12 144.815 265.293 142.668L254.083 113.566C253.668 112.489 253.461 111.951 253.018 111.647C252.575 111.342 251.999 111.342 250.849 111.342H250.57C248.276 111.342 247.13 111.342 246.613 112.097C246.096 112.853 246.51 113.927 247.337 116.073L258.547 145.174Z" fill="url(#paint5_linear_2102_33970)"/>
</g>
<g opacity="0.4">
<path fill-rule="evenodd" clip-rule="evenodd" d="M98.696 134.912C97.7947 131.562 98.241 127.992 99.9386 124.969C101.636 121.946 104.449 119.713 107.772 118.75C111.095 117.788 114.662 118.173 117.704 119.823C120.747 121.473 123.021 124.257 124.039 127.573C125.055 130.889 124.734 134.473 123.143 137.554C121.551 140.634 118.817 142.964 115.53 144.042C112.242 145.121 108.664 144.86 105.566 143.317C102.468 141.775 100.098 139.074 98.9666 135.795L98.8313 135.365L98.696 134.912ZM111.864 131.27L108.753 121.25C109.631 120.978 110.54 120.819 111.458 120.774C113.755 120.688 116.016 121.36 117.894 122.689C119.772 124.017 121.163 125.928 121.853 128.126C122.123 129.008 122.283 129.919 122.326 130.841C122.355 131.76 122.272 132.679 122.078 133.578C121.681 135.374 120.808 137.03 119.553 138.374C118.316 139.739 116.738 140.748 114.982 141.297C113.226 141.846 111.356 141.914 109.564 141.495C108.682 141.288 107.826 140.977 107.016 140.567C106.202 140.136 105.445 139.604 104.761 138.984C103.43 137.748 102.436 136.191 101.875 134.46L111.864 131.27Z" fill="white"/>
<path fill-rule="evenodd" clip-rule="evenodd" d="M127.536 218.902C126.857 215.618 127.44 212.198 129.168 209.327C130.896 206.456 133.641 204.346 136.854 203.419C140.068 202.492 143.511 202.818 146.495 204.33C149.479 205.842 151.784 208.429 152.947 211.574V212.003C152.947 212.139 152.947 212.297 153.105 212.433C153.998 215.654 153.647 219.095 152.121 222.068C150.596 225.041 148.008 227.326 144.876 228.469C141.744 229.611 138.298 229.527 135.225 228.232C132.153 226.936 129.68 224.525 128.302 221.481C128.234 221.266 128.172 221.051 128.11 220.836C128.048 220.622 127.986 220.406 127.919 220.192C127.865 220.02 127.818 219.847 127.771 219.675C127.701 219.418 127.63 219.16 127.536 218.902ZM137.231 206.122L140.477 216.098L140.546 216.075L143.792 226.074C145.086 225.641 146.281 224.956 147.309 224.06C148.339 223.163 149.182 222.072 149.791 220.848C150.204 220.033 150.507 219.165 150.692 218.269C150.891 217.379 150.967 216.465 150.917 215.555C150.799 213.246 149.923 211.04 148.427 209.281C146.931 207.522 144.897 206.309 142.642 205.828C140.843 205.461 138.98 205.563 137.231 206.122Z" fill="white"/>
<path fill-rule="evenodd" clip-rule="evenodd" d="M117.928 163.028C115.446 165.519 114.051 168.895 114.051 172.418V173.344C114.051 176.867 115.446 180.243 117.928 182.734C120.41 185.224 123.777 186.623 127.287 186.623C130.798 186.623 134.164 185.224 136.646 182.734C139.128 180.243 140.523 176.867 140.523 173.344V172.418C140.523 168.895 139.128 165.519 136.646 163.028C134.164 160.538 130.798 159.139 127.287 159.139C123.777 159.139 120.41 160.538 117.928 163.028ZM127.107 172.847V162.351C128.937 162.365 130.732 162.856 132.315 163.776C133.143 164.223 133.902 164.787 134.57 165.45C135.875 166.749 136.813 168.371 137.292 170.152C137.769 171.933 137.768 173.809 137.29 175.589C136.811 177.369 135.872 178.992 134.566 180.29C133.261 181.588 131.637 182.516 129.857 182.981C128.088 183.479 126.216 183.479 124.446 182.981C123.564 182.753 122.715 182.41 121.92 181.963L127.107 172.847Z" fill="white"/>
</g>
<path d="M162.079 66.0779H126.069L137.028 72.7962L162.079 66.0779Z" fill="url(#paint6_linear_2102_33970)"/>
<path d="M162.079 66.0779L138.967 76.8L142.868 90.4628L162.079 66.0779Z" fill="url(#paint7_linear_2102_33970)"/>
<path d="M132.856 82.8397L138.967 76.8L162.079 66.0779L132.856 82.8397Z" fill="url(#paint8_linear_2102_33970)"/>
<path d="M132.856 82.8397L138.967 76.8L162.079 66.0779L137.028 72.7962L132.856 82.8397Z" fill="#B76E00"/>
<defs>
<filter id="filter0_f_2102_33970" x="230.178" y="92.7864" width="93.3518" height="92.7319" filterUnits="userSpaceOnUse" color-interpolation-filters="sRGB">
<feFlood flood-opacity="0" result="BackgroundImageFix"/>
<feBlend mode="normal" in="SourceGraphic" in2="BackgroundImageFix" result="shape"/>
<feGaussianBlur stdDeviation="10" result="effect1_foregroundBlur_2102_33970"/>
</filter>
<linearGradient id="paint0_linear_2102_33970" x1="208" y1="313" x2="370.789" y2="22.369" gradientUnits="userSpaceOnUse">
<stop/>
<stop offset="1" stop-opacity="0.01"/>
</linearGradient>
<linearGradient id="paint1_linear_2102_33970" x1="187.114" y1="169.257" x2="-67.3076" y2="169.257" gradientUnits="userSpaceOnUse">
<stop stop-color="#FFE000"/>
<stop offset="0.41" stop-color="#FFBD00"/>
<stop offset="0.78" stop-color="#FFA500"/>
<stop offset="1" stop-color="#FF9C00"/>
</linearGradient>
<linearGradient id="paint2_linear_2102_33970" x1="308.707" y1="129.371" x2="170.778" y2="129.371" gradientUnits="userSpaceOnUse">
<stop stop-color="#FFE000"/>
<stop offset="0.41" stop-color="#FFBD00"/>
<stop offset="0.78" stop-color="#FFA500"/>
<stop offset="1" stop-color="#FF9C00"/>
</linearGradient>
<linearGradient id="paint3_linear_2102_33970" x1="308.707" y1="129.371" x2="170.778" y2="129.371" gradientUnits="userSpaceOnUse">
<stop stop-color="#FFE000"/>
<stop offset="0.41" stop-color="#FFBD00"/>
<stop offset="0.78" stop-color="#FFA500"/>
<stop offset="1" stop-color="#FF9C00"/>
</linearGradient>
<linearGradient id="paint4_linear_2102_33970" x1="308.707" y1="129.371" x2="170.778" y2="129.371" gradientUnits="userSpaceOnUse">
<stop stop-color="#FFE000"/>
<stop offset="0.41" stop-color="#FFBD00"/>
<stop offset="0.78" stop-color="#FFA500"/>
<stop offset="1" stop-color="#FF9C00"/>
</linearGradient>
<linearGradient id="paint5_linear_2102_33970" x1="308.707" y1="129.371" x2="170.778" y2="129.371" gradientUnits="userSpaceOnUse">
<stop stop-color="#FFE000"/>
<stop offset="0.41" stop-color="#FFBD00"/>
<stop offset="0.78" stop-color="#FFA500"/>
<stop offset="1" stop-color="#FF9C00"/>
</linearGradient>
<linearGradient id="paint6_linear_2102_33970" x1="164.846" y1="78.2704" x2="79.0256" y2="78.2704" gradientUnits="userSpaceOnUse">
<stop stop-color="#FFE000"/>
<stop offset="0.41" stop-color="#FFBD00"/>
<stop offset="0.78" stop-color="#FFA500"/>
<stop offset="1" stop-color="#FF9C00"/>
</linearGradient>
<linearGradient id="paint7_linear_2102_33970" x1="164.846" y1="78.2704" x2="79.0256" y2="78.2704" gradientUnits="userSpaceOnUse">
<stop stop-color="#FFE000"/>
<stop offset="0.41" stop-color="#FFBD00"/>
<stop offset="0.78" stop-color="#FFA500"/>
<stop offset="1" stop-color="#FF9C00"/>
</linearGradient>
<linearGradient id="paint8_linear_2102_33970" x1="164.846" y1="78.2704" x2="79.0256" y2="78.2704" gradientUnits="userSpaceOnUse">
<stop stop-color="#FFE000"/>
<stop offset="0.41" stop-color="#FFBD00"/>
<stop offset="0.78" stop-color="#FFA500"/>
<stop offset="1" stop-color="#FF9C00"/>
</linearGradient>
</defs>
</svg>
