<svg width="416" height="312" viewBox="0 0 416 312" fill="none" xmlns="http://www.w3.org/2000/svg">
<g opacity="0.2">
<mask id="mask0_2102_33987" style="mask-type:alpha" maskUnits="userSpaceOnUse" x="0" y="-1" width="416" height="313">
<path opacity="0.48" fill-rule="evenodd" clip-rule="evenodd" d="M0 171.824C0 207.753 12.9527 240.494 34.2672 265.238C58.7197 293.634 94.1782 311.487 133.703 311.547C150.977 311.572 167.494 308.178 182.665 301.982C190.51 298.777 199.29 299.145 206.887 302.942C215.799 307.39 225.779 309.884 236.317 309.884C240.67 309.884 244.933 309.456 249.056 308.642C260.827 306.328 271.538 300.851 280.334 293.094C285.862 288.217 292.942 285.766 300.178 285.774H300.301C324.212 285.774 346.422 278.206 364.862 265.238C381.347 253.659 394.808 237.768 403.778 219.11C411.598 202.85 416 184.483 416 165.044C416 98.3705 364.196 44.3131 300.301 44.3131C293.788 44.3131 287.406 44.8872 281.18 45.9584C264.695 18.1109 235.175 -0.453125 201.499 -0.453125C187.281 -0.453125 173.802 2.85554 161.736 8.78661C150.262 14.4088 140.06 22.3976 131.715 32.1335C103.377 32.605 77.1749 42.2648 55.7292 58.3861C21.9713 83.7481 0 125.112 0 171.824Z" fill="url(#paint0_linear_2102_33987)"/>
</mask>
<g mask="url(#mask0_2102_33987)">
<rect y="-0.453125" width="416" height="312" fill="#FFAB00"/>
</g>
</g>
<path d="M300.213 230.427H293.887V229.907H299.693V178.253H277.42V101.813H256.967V101.293H277.94V177.733H300.213V230.427ZM173.333 142.113H172.813V123.827H187.113V107.36H187.633V124.433H173.333V142.113Z" fill="#FFAB00"/>
<path opacity="0.08" d="M256.967 96.8736C256.967 99.647 255.84 102.334 253.933 104.24C251.94 106.234 249.34 107.274 246.567 107.274H174.72C170.907 107.36 167.353 105.367 165.447 102.16C163.54 98.867 163.54 94.7936 165.447 91.5003C167.353 88.207 170.907 86.2136 174.72 86.387H177.147C175.413 80.147 176.627 73.4736 180.527 68.3603C184.427 63.247 190.58 60.2136 196.993 60.2136H203.06C210.773 60.2136 217.793 64.4603 221.347 71.307C223.08 70.4403 224.987 69.9203 226.98 69.9203H228.54C231.833 69.9203 234.953 71.2203 237.293 73.5603C239.633 75.9003 240.933 79.0203 240.933 82.3136V82.9203C240.933 84.047 240.76 85.2603 240.413 86.3003H246.393C252.287 86.4736 256.967 91.1536 256.967 96.8736Z" fill="#FFAB00"/>
<path d="M285.48 197.407V209.54C285.48 210.234 285.133 210.84 284.527 211.1C284.267 211.274 283.92 211.36 283.573 211.36C282.533 211.36 281.667 210.494 281.667 209.54V197.407C281.667 193.334 278.633 189.954 274.647 189.52C274.3 189.52 274.04 189.434 273.693 189.434C269.273 189.434 265.72 192.987 265.72 197.407V209.54C265.72 210.234 265.373 210.84 264.767 211.1C264.507 211.274 264.16 211.36 263.813 211.36C262.773 211.36 261.907 210.494 261.907 209.454V197.32C261.907 190.82 267.193 185.62 273.607 185.62C273.953 185.62 274.213 185.62 274.56 185.707C280.8 186.227 285.48 191.254 285.48 197.407Z" fill="white"/>
<path d="M285.48 197.407V209.54C285.74 209.974 285.653 210.58 285.22 210.927C284.787 211.274 284.267 211.274 283.833 210.927C283.4 210.58 283.313 209.974 283.573 209.54V197.407C283.573 192.987 280.02 189.434 275.6 189.434C275.253 189.434 274.993 189.434 274.647 189.52C274.3 189.52 274.04 189.434 273.693 189.434C269.273 189.434 265.72 192.987 265.72 197.407V209.54C265.98 209.974 265.893 210.58 265.46 210.927C265.027 211.274 264.507 211.274 264.073 210.927C263.64 210.58 263.553 210.06 263.813 209.54V197.407C263.467 193.334 265.46 189.434 268.927 187.267C272.393 185.1 276.813 185.1 280.28 187.267C283.833 189.347 285.827 193.334 285.48 197.407Z" fill="#C4CDD5"/>
<path d="M287.56 209.454H258.787C255.32 209.454 252.46 212.314 252.46 215.78V244.554C252.46 248.02 255.32 250.88 258.787 250.88H287.56C291.027 250.88 293.887 248.02 293.887 244.554V215.78C293.887 212.314 291.027 209.454 287.56 209.454Z" fill="#B76E00"/>
<path d="M287.559 209.454H265.979C262.513 209.454 259.653 212.314 259.653 215.78V244.554C259.653 248.02 262.513 250.88 265.979 250.88H287.559C291.026 250.88 293.886 248.02 293.886 244.554V215.78C293.886 212.314 291.026 209.454 287.559 209.454Z" fill="#B76E00"/>
<path d="M287.733 125.214H268.667C264.853 125.214 261.733 128.334 261.733 132.147V151.907C261.733 155.72 264.853 158.84 268.667 158.84H287.733C291.547 158.84 294.667 155.72 294.667 151.907V132.147C294.667 128.334 291.547 125.214 287.733 125.214Z" fill="url(#paint1_linear_2102_33987)"/>
<path opacity="0.08" d="M156 111.954H136.586C135.113 111.954 133.986 113.08 133.986 114.554V142.98C133.986 144.454 135.113 145.58 136.586 145.58H156C157.473 145.58 158.6 144.454 158.6 142.98V114.554C158.6 113.08 157.386 111.954 156 111.954Z" fill="#FFAB00"/>
<path d="M150.019 117.327H130.519C129.046 117.327 127.919 118.454 127.919 119.927V148.354C127.919 149.827 129.046 150.954 130.519 150.954H149.933C151.406 150.954 152.533 149.827 152.533 148.354V119.927C152.619 118.54 151.406 117.327 150.019 117.327Z" fill="white"/>
<path opacity="0.48" d="M150.019 117.327H130.519C129.046 117.327 127.919 118.454 127.919 119.927V148.354C127.919 149.827 129.046 150.954 130.519 150.954H149.933C151.406 150.954 152.533 149.827 152.533 148.354V119.927C152.619 118.54 151.406 117.327 150.019 117.327Z" fill="#FFAB00"/>
<path d="M116.133 210.58C116.307 212.314 116.913 213.96 117.867 215.347C121.68 222.107 126.013 228.78 131.907 233.807C140.66 241.174 152.013 244.38 163.107 247.414C162.153 246.894 160.94 241.867 160.507 240.74C159.64 238.574 158.86 236.32 158.08 234.154C156.78 230.687 154.093 227.914 151.407 225.314C145.427 219.507 138.147 215.26 130.173 212.834C125.58 211.36 120.813 210.58 116.133 210.58Z" fill="#FFAB00"/>
<path d="M159.293 214.307C158.427 207.98 157.473 201.654 154.96 195.76C152.447 189.954 148.027 184.58 142.047 182.414C141.873 191.427 141.7 200.44 141.527 209.454C141.44 214.654 141.353 219.94 142.827 224.967C145.427 233.72 154.527 243.947 163.28 246.894C164.58 242.734 162.413 236.32 161.807 231.987L159.293 214.307Z" fill="#B76E00"/>
<path d="M252.373 141.68H168.133C164.06 141.68 160.853 144.974 160.853 148.96V165.514C160.853 169.587 164.146 172.794 168.133 172.794H252.286C256.36 172.794 259.566 169.5 259.566 165.514V148.96C259.653 144.974 256.36 141.68 252.373 141.68ZM252.373 179.814H168.133C164.06 179.814 160.853 183.107 160.853 187.094V203.647C160.853 207.72 164.146 210.927 168.133 210.927H252.286C256.36 210.927 259.566 207.634 259.566 203.647V187.094C259.653 183.107 256.36 179.814 252.373 179.814ZM252.373 218.12H168.133C164.06 218.12 160.853 221.414 160.853 225.4V241.954C160.853 246.027 164.146 249.234 168.133 249.234H252.286C256.36 249.234 259.566 245.94 259.566 241.954V225.4C259.653 221.414 256.36 218.12 252.373 218.12Z" fill="#B76E00"/>
<path d="M252.72 141.68H173.68C169.607 141.68 166.4 144.974 166.4 148.96V165.514C166.4 169.587 169.693 172.794 173.68 172.794H252.633C256.707 172.794 259.913 169.5 259.913 165.514V148.96C260 144.974 256.707 141.68 252.72 141.68ZM260 188.134V202.694C260 204.86 259.133 207.027 257.487 208.587C255.84 210.147 253.673 211.014 251.333 211.014H175.067C172.727 211.014 170.56 210.147 168.913 208.587C167.267 207.027 166.4 204.947 166.4 202.694V188.134C166.4 183.54 170.3 179.814 175.067 179.814H251.333C253.673 179.814 255.84 180.68 257.487 182.24C259.047 183.8 260 185.88 260 188.134ZM252.72 217.947H173.68C169.607 217.947 166.4 221.24 166.4 225.227V241.78C166.4 245.854 169.693 249.06 173.68 249.06H252.633C256.707 249.06 259.913 245.767 259.913 241.78V225.227C260 221.24 256.707 217.947 252.72 217.947Z" fill="url(#paint2_linear_2102_33987)"/>
<path d="M186.853 157.28C186.853 159.187 185.293 160.747 183.386 160.747C181.479 160.747 179.919 159.187 179.919 157.28C179.919 155.374 181.479 153.814 183.386 153.814C185.293 153.814 186.853 155.374 186.853 157.28ZM197.253 157.28C197.253 159.187 195.693 160.747 193.786 160.747C191.879 160.747 190.319 159.187 190.319 157.28C190.319 155.374 191.879 153.814 193.786 153.814C195.693 153.814 197.253 155.374 197.253 157.28ZM204.186 160.747C206.093 160.747 207.653 159.187 207.653 157.28C207.653 155.374 206.093 153.814 204.186 153.814C202.279 153.814 200.719 155.374 200.719 157.28C200.719 159.187 202.279 160.747 204.186 160.747ZM187.199 195.414C187.199 197.32 185.639 198.88 183.733 198.88C181.826 198.88 180.266 197.32 180.266 195.414C180.266 193.507 181.826 191.947 183.733 191.947C185.639 191.947 187.199 193.507 187.199 195.414ZM197.599 195.414C197.599 197.32 196.039 198.88 194.133 198.88C192.226 198.88 190.666 197.32 190.666 195.414C190.666 193.507 192.226 191.947 194.133 191.947C196.039 191.947 197.599 193.507 197.599 195.414ZM204.533 198.88C206.439 198.88 207.999 197.32 207.999 195.414C207.999 193.507 206.439 191.947 204.533 191.947C202.626 191.947 201.066 193.507 201.066 195.414C201.066 197.32 202.626 198.88 204.533 198.88ZM249.599 193.68H223.599C223.079 193.68 222.733 194.027 222.733 194.547V196.28C222.733 196.8 223.079 197.147 223.599 197.147H249.599C250.119 197.147 250.466 196.8 250.466 196.28V194.547C250.466 194.027 250.119 193.68 249.599 193.68ZM187.199 233.547C187.199 235.454 185.639 237.014 183.733 237.014C181.826 237.014 180.266 235.454 180.266 233.547C180.266 231.64 181.826 230.08 183.733 230.08C185.639 230.08 187.199 231.64 187.199 233.547ZM197.599 233.547C197.599 235.454 196.039 237.014 194.133 237.014C192.226 237.014 190.666 235.454 190.666 233.547C190.666 231.64 192.226 230.08 194.133 230.08C196.039 230.08 197.599 231.64 197.599 233.547ZM204.533 237.014C206.439 237.014 207.999 235.454 207.999 233.547C207.999 231.64 206.439 230.08 204.533 230.08C202.626 230.08 201.066 231.64 201.066 233.547C201.066 235.454 202.626 237.014 204.533 237.014ZM249.599 231.814H223.599C223.079 231.814 222.733 232.16 222.733 232.68V234.414C222.733 234.934 223.079 235.28 223.599 235.28H249.599C250.119 235.28 250.466 234.934 250.466 234.414V232.68C250.466 232.16 250.119 231.814 249.599 231.814Z" fill="#FFF5CC"/>
<path d="M275.947 231.554C276.38 229.994 275.253 228.347 274.907 226.787C274.82 226.527 274.82 226.18 274.907 225.92C275.08 224.62 276.207 223.667 277.507 223.667C278.807 223.667 279.933 224.62 280.107 225.92C280.193 226.18 280.107 226.527 280.107 226.787C279.847 228.347 278.72 230.08 279.153 231.64L279.5 232.767C279.933 234.067 278.893 235.454 277.507 235.454C276.12 235.454 275.167 234.154 275.513 232.854L275.947 231.554ZM270.4 137.174L278.373 133.014L286 137.174C286 137.174 284.613 147.4 278.547 150.347C278.547 150.347 271.093 147.487 270.4 137.174Z" fill="#B76E00"/>
<defs>
<linearGradient id="paint0_linear_2102_33987" x1="208" y1="311.547" x2="369.997" y2="21.4023" gradientUnits="userSpaceOnUse">
<stop/>
<stop offset="1" stop-opacity="0.01"/>
</linearGradient>
<linearGradient id="paint1_linear_2102_33987" x1="297.198" y1="142.027" x2="218.709" y2="142.027" gradientUnits="userSpaceOnUse">
<stop stop-color="#FFE000"/>
<stop offset="0.41" stop-color="#FFBD00"/>
<stop offset="0.78" stop-color="#FFA500"/>
<stop offset="1" stop-color="#FF9C00"/>
</linearGradient>
<linearGradient id="paint2_linear_2102_33987" x1="267.193" y1="195.37" x2="44.1208" y2="195.37" gradientUnits="userSpaceOnUse">
<stop stop-color="#FFE000"/>
<stop offset="0.41" stop-color="#FFBD00"/>
<stop offset="0.78" stop-color="#FFA500"/>
<stop offset="1" stop-color="#FF9C00"/>
</linearGradient>
</defs>
</svg>
