<svg width="416" height="312" viewBox="0 0 416 312" fill="none" xmlns="http://www.w3.org/2000/svg">
<g opacity="0.2">
<mask id="mask0_2102_33991" style="mask-type:alpha" maskUnits="userSpaceOnUse" x="0" y="-1" width="416" height="313">
<path opacity="0.48" fill-rule="evenodd" clip-rule="evenodd" d="M0 171.824C0 207.753 12.9527 240.494 34.2672 265.238C58.7197 293.634 94.1782 311.487 133.703 311.547C150.977 311.572 167.494 308.178 182.665 301.982C190.51 298.777 199.29 299.145 206.887 302.942C215.799 307.39 225.779 309.884 236.317 309.884C240.67 309.884 244.933 309.456 249.056 308.642C260.827 306.328 271.538 300.851 280.334 293.094C285.862 288.217 292.942 285.766 300.178 285.774H300.301C324.212 285.774 346.422 278.206 364.862 265.238C381.347 253.659 394.808 237.768 403.778 219.11C411.598 202.85 416 184.483 416 165.044C416 98.3705 364.196 44.3131 300.301 44.3131C293.788 44.3131 287.406 44.8872 281.18 45.9584C264.695 18.1109 235.175 -0.453125 201.499 -0.453125C187.281 -0.453125 173.802 2.85554 161.736 8.78661C150.262 14.4088 140.06 22.3976 131.715 32.1335C103.377 32.605 77.1749 42.2648 55.7292 58.3861C21.9713 83.7481 0 125.112 0 171.824Z" fill="url(#paint0_linear_2102_33991)"/>
</mask>
<g mask="url(#mask0_2102_33991)">
<rect y="-0.453125" width="416" height="312" fill="#FFAB00"/>
</g>
</g>
<path opacity="0.12" d="M257.799 85.6029L96.6555 81.0179C91.1522 80.8617 86.6667 84.6223 86.6667 89.419V227.983C86.6667 232.78 91.1522 236.426 96.6555 236.13L257.799 227.439C262.375 227.193 266.067 223.473 266.067 219.132V93.6995C266.067 89.3557 262.375 85.7312 257.799 85.6029Z" fill="#FFAB00"/>
<path d="M257.813 80.4975L101.553 75.9236C96.2162 75.7679 91.8667 79.5193 91.8667 84.3046V222.534C91.8667 227.319 96.2162 230.956 101.553 230.661L257.813 221.991C262.25 221.745 265.83 218.035 265.83 213.703V88.5741C265.83 84.2415 262.25 80.6255 257.813 80.4975Z" fill="white"/>
<path opacity="0.16" d="M177.771 175.559H177.771C171.537 175.674 165.373 174.24 159.831 171.389L159.831 171.389C153.92 168.35 148.954 163.752 145.474 158.097C142.139 152.657 140.371 146.403 140.366 140.025C140.366 120.079 157.34 104.264 177.767 104.795C197.688 105.314 213.51 121.261 213.51 140.322C213.51 159.382 197.69 175.2 177.771 175.559ZM134.456 210.257L134.455 210.257C132.41 210.34 130.808 208.847 130.808 206.995V192.287C130.808 190.42 132.432 188.813 134.487 188.762L227.108 186.474L227.111 186.474C227.949 186.447 228.762 186.762 229.362 187.345C229.964 187.929 230.301 188.731 230.297 189.567V189.569V203.395C230.281 205.184 228.866 206.648 227.075 206.726C227.074 206.726 227.074 206.726 227.074 206.726L134.456 210.257Z" fill="#919EAB" stroke="#919EAB"/>
<path d="M219.006 151.338C219.006 174.656 200.773 193 177.468 192.284C153.215 191.539 132.818 170.593 132.818 145.527C132.818 120.461 153.215 102.266 177.468 104.791C200.773 107.217 219.006 128.02 219.006 151.338Z" fill="#EEAA01"/>
<path d="M225.304 149.328C225.304 172.646 207.07 190.989 183.765 190.274C159.513 189.529 139.115 168.583 139.115 143.517C139.115 118.451 159.513 100.255 183.765 102.781C207.07 105.207 225.304 126.009 225.304 149.328Z" fill="#FFD666"/>
<path d="M223.475 149.204C223.475 171.496 206.029 189.001 183.765 188.281C160.639 187.531 141.221 167.542 141.221 143.659C141.221 119.776 160.639 102.404 183.765 104.773C206.029 107.054 223.475 126.913 223.475 149.204Z" fill="#B76E00" fill-opacity="0.6"/>
<path d="M222.164 149.117C222.164 170.673 205.283 187.581 183.765 186.858C161.442 186.108 142.721 166.804 142.721 143.761C142.721 120.718 161.442 103.938 183.765 106.201C205.283 108.376 222.164 127.56 222.164 149.117Z" fill="#FFD666"/>
<path d="M222.164 149.117C222.164 170.673 205.283 187.581 183.765 186.858C161.442 186.108 142.721 166.804 142.721 143.761C142.721 120.718 161.442 103.938 183.765 106.201C205.283 108.376 222.164 127.56 222.164 149.117Z" fill="url(#paint1_linear_2102_33991)"/>
<path d="M183.546 113.53C184.691 113.639 185.617 114.669 185.617 115.833V119.802C187.932 120.061 190.229 120.46 192.496 120.995C194.187 121.392 195.869 121.866 197.541 122.415C198.541 122.744 199.223 123.754 199.121 124.797L198.634 129.774C198.505 131.094 197.2 131.869 195.971 131.324C194.871 130.833 193.741 130.412 192.588 130.063C190.509 129.441 188.369 129.041 186.205 128.87L185.619 128.822V140.188C191.592 141.859 195.978 144.108 198.814 146.935C201.636 149.749 203.045 153.26 203.042 157.467C203.042 162.021 201.484 165.671 198.368 168.417C195.231 171.181 190.823 172.733 185.144 173.072V177.453C185.144 178.616 184.217 179.523 183.071 179.477H183.035C181.886 179.432 180.954 178.448 180.954 177.28V172.956L180.031 172.915C177.462 172.805 174.904 172.532 172.37 172.098C170.585 171.789 168.817 171.382 167.076 170.881C166.035 170.58 165.319 169.588 165.415 168.522L165.989 162.124C166.113 160.741 167.502 159.94 168.817 160.455C170.337 161.056 171.892 161.566 173.473 161.984C175.91 162.627 178.402 163.043 180.916 163.227L180.954 150.584C175.219 149.165 170.937 147.064 168.107 144.28C165.273 141.484 163.855 137.909 163.852 133.554C163.852 129.051 165.389 125.578 168.465 123.135C171.521 120.708 175.864 119.5 181.47 119.503V115.446C181.466 114.279 182.398 113.421 183.546 113.53ZM181.466 128.702C179.694 128.831 178.313 129.318 177.323 130.163C176.333 131.007 175.837 132.145 175.837 133.575C175.837 134.927 176.295 136.057 177.212 136.965C178.128 137.873 179.546 138.596 181.466 139.135V128.702ZM185.141 151.596V163.191C187.067 163.195 188.545 162.735 189.576 161.812C190.606 160.889 191.12 159.588 191.119 157.91C191.119 156.376 190.641 155.104 189.685 154.094C188.729 153.083 187.214 152.251 185.141 151.597V151.596Z" fill="#FFF5CC"/>
<path d="M102.361 88.971C103.557 88.971 104.527 88.001 104.527 86.8044C104.527 85.6077 103.557 84.6377 102.361 84.6377C101.164 84.6377 100.194 85.6077 100.194 86.8044C100.194 88.001 101.164 88.971 102.361 88.971Z" fill="#FF5630"/>
<path d="M109.294 88.971C110.491 88.971 111.461 88.001 111.461 86.8044C111.461 85.6077 110.491 84.6377 109.294 84.6377C108.097 84.6377 107.127 85.6077 107.127 86.8044C107.127 88.001 108.097 88.971 109.294 88.971Z" fill="#FFAB00"/>
<path d="M116.227 88.971C117.424 88.971 118.394 88.001 118.394 86.8044C118.394 85.6077 117.424 84.6377 116.227 84.6377C115.031 84.6377 114.061 85.6077 114.061 86.8044C114.061 88.001 115.031 88.971 116.227 88.971Z" fill="#FFAB00"/>
<path d="M274 194.664C287.807 194.664 299 183.471 299 169.664C299 155.857 287.807 144.664 274 144.664C260.193 144.664 249 155.857 249 169.664C249 183.471 260.193 194.664 274 194.664Z" fill="#FBDA97"/>
<path d="M268.325 181.09L259.476 171.461C259.149 171.106 258.979 170.637 259.002 170.158C259.026 169.679 259.241 169.229 259.6 168.906L262.059 166.702C262.42 166.38 262.895 166.212 263.38 166.235C263.866 166.258 264.322 166.47 264.649 166.825L269.979 172.612L284.658 159.147C285.014 158.821 285.487 158.648 285.973 158.665C286.458 158.683 286.917 158.889 287.248 159.24L289.508 161.641C289.672 161.814 289.8 162.018 289.884 162.241C289.969 162.463 290.008 162.7 289.999 162.938C289.99 163.175 289.934 163.408 289.834 163.624C289.733 163.84 289.591 164.034 289.414 164.196L270.903 181.176C270.728 181.339 270.523 181.465 270.299 181.549C270.074 181.632 269.836 181.671 269.596 181.663C269.356 181.655 269.121 181.6 268.903 181.502C268.685 181.404 268.488 181.264 268.325 181.09Z" fill="#B76E00"/>
<defs>
<linearGradient id="paint0_linear_2102_33991" x1="208" y1="311.547" x2="369.997" y2="21.4023" gradientUnits="userSpaceOnUse">
<stop/>
<stop offset="1" stop-opacity="0.01"/>
</linearGradient>
<linearGradient id="paint1_linear_2102_33991" x1="137.971" y1="82.5936" x2="232.187" y2="92.1601" gradientUnits="userSpaceOnUse">
<stop stop-color="#CF8301"/>
<stop offset="0.554206" stop-color="#FFB71C"/>
<stop offset="1" stop-color="#FFECAD"/>
</linearGradient>
</defs>
</svg>
